<svg xmlns="http://www.w3.org/2000/svg" width="370" height="117.91" viewBox="0 0 370 117.91">
  <g id="Login_Logo" data-name="Login Logo" transform="translate(0 0.499)">
    <path id="Subtraction_2" data-name="Subtraction 2" d="M28.6,78.03A30.081,30.081,0,0,1,0,57.126H4.74a25.613,25.613,0,0,0,47.715,0H57.2A30.073,30.073,0,0,1,28.6,78.03ZM4.74,38.517h0L0,38.514A30.115,30.115,0,0,1,25.134,17.893V0H28.6A47.046,47.046,0,0,1,50.491,5.331a48.571,48.571,0,0,1,16.6,14.2H58.008A40.809,40.809,0,0,0,32.068,7.076V17.893A30.115,30.115,0,0,1,57.2,38.511l-4.74,0a25.611,25.611,0,0,0-47.715,0Z" transform="translate(293.597 0.001)" fill="#546d79" stroke="rgba(0,0,0,0)" stroke-miterlimit="10" stroke-width="1"/>
    <g id="Group_284" data-name="Group 284" transform="translate(0 21.85)">
      <g id="Group_273" data-name="Group 273" transform="translate(361.908 32.613)">
        <path id="Path_421" data-name="Path 421" d="M176.695,29.722h7.146c.213-1.028.35-2.08.5-3.131H177.33Q177.072,28.179,176.695,29.722Z" transform="translate(-176.695 -26.591)" fill="#546d79"/>
      </g>
      <g id="Group_274" data-name="Group 274" transform="translate(360.18 38.049)">
        <path id="Path_422" data-name="Path 422" d="M175.851,32.375h7.373c.344-1.028.641-2.072.915-3.129h-7.154C176.656,30.311,176.263,31.349,175.851,32.375Z" transform="translate(-175.851 -29.246)" fill="#546d79"/>
      </g>
      <g id="Group_275" data-name="Group 275" transform="translate(357.508 43.483)">
        <path id="Path_423" data-name="Path 423" d="M174.546,35.031h7.828c.493-1.028.964-2.064,1.384-3.131h-7.564C175.687,32.971,175.14,34.015,174.546,35.031Z" transform="translate(-174.546 -31.9)" fill="#546d79"/>
      </g>
      <g id="Group_276" data-name="Group 276" transform="translate(362.897 27.177)">
        <path id="Path_424" data-name="Path 424" d="M177.346,23.936c-.029,1.05-.061,2.1-.168,3.131h6.945c.092-1.034.133-2.08.158-3.131Z" transform="translate(-177.178 -23.936)" fill="#546d79"/>
      </g>
      <g id="Group_277" data-name="Group 277" transform="translate(353.757 48.92)">
        <path id="Path_425" data-name="Path 425" d="M172.714,37.686h8.563q1-1.526,1.873-3.131h-8.092Q173.959,36.177,172.714,37.686Z" transform="translate(-172.714 -34.555)" fill="#546d79"/>
      </g>
      <g id="Group_278" data-name="Group 278" transform="translate(353.577)">
        <path id="Path_426" data-name="Path 426" d="M175.034,13.794h8.227c-.588-1.075-1.239-2.109-1.9-3.131h-8.731C173.468,11.674,174.291,12.7,175.034,13.794Z" transform="translate(-172.626 -10.663)" fill="#546d79"/>
      </g>
      <g id="Group_279" data-name="Group 279" transform="translate(357.434 5.434)">
        <path id="Path_427" data-name="Path 427" d="M176.111,16.448h7.678c-.42-1.065-.887-2.1-1.378-3.131h-7.9C175.1,14.326,175.606,15.387,176.111,16.448Z" transform="translate(-174.51 -13.317)" fill="#546d79"/>
      </g>
      <g id="Group_280" data-name="Group 280" transform="translate(0 54.356)">
        <path id="Path_428" data-name="Path 428" d="M322.184,49.8H0v6.933H323.247v-.014A47.8,47.8,0,0,0,360.68,37.21h-9.02A40.808,40.808,0,0,1,322.184,49.8Z" transform="translate(0 -37.21)" fill="#546d79"/>
      </g>
      <g id="Group_281" data-name="Group 281" transform="translate(360.215 10.87)">
        <path id="Path_429" data-name="Path 429" d="M176.791,19.1h7.33c-.276-1.057-.565-2.1-.909-3.131h-7.344C176.269,16.973,176.47,18.065,176.791,19.1Z" transform="translate(-175.868 -15.972)" fill="#546d79"/>
      </g>
      <g id="Group_282" data-name="Group 282" transform="translate(361.816 16.307)">
        <path id="Path_430" data-name="Path 430" d="M177.326,21.758h7.058c-.145-1.05-.276-2.1-.487-3.131H176.65C176.906,19.663,177.152,20.691,177.326,21.758Z" transform="translate(-176.65 -18.627)" fill="#546d79"/>
      </g>
      <g id="Group_283" data-name="Group 283" transform="translate(362.713 21.741)">
        <path id="Path_431" data-name="Path 431" d="M177.389,24.412h6.984c-.025-1.05-.066-2.1-.158-3.131h-7.128C177.2,22.323,177.358,23.349,177.389,24.412Z" transform="translate(-177.088 -21.281)" fill="#546d79"/>
      </g>
    </g>
    <g id="Group_290" data-name="Group 290" transform="translate(126.85 18.704)">
      <g id="Group_285" data-name="Group 285">
        <path id="Path_432" data-name="Path 432" d="M61.918,9.129H84.171q15.6,0,15.6,15.047V32.3q0,10.716-5.725,13.849-3.692,2.03-15.694,2.031v26.87H61.918ZM78.354,37.1h2.955q4.057,0,4.062-3.968V24.176q0-3.965-4.062-3.97H78.354Z" transform="translate(-61.918 -9.129)" fill="#546d79"/>
      </g>
      <g id="Group_286" data-name="Group 286" transform="translate(41.452 10.43)">
        <path id="Path_433" data-name="Path 433" d="M82.163,15.611H98.044v6.923q3.234-7.11,10.34-8.311V33.892l-2.588-.186q-7.193-.553-7.2,7.109v28.9H82.163Z" transform="translate(-82.163 -14.223)" fill="#546d79"/>
      </g>
      <g id="Group_287" data-name="Group 287" transform="translate(70.075)">
        <path id="Path_434" data-name="Path 434" d="M96.142,9.129h16.434v8.307H96.142Zm0,11.818h16.434v54.1H96.142Z" transform="translate(-96.142 -9.129)" fill="#546d79"/>
      </g>
      <g id="Group_288" data-name="Group 288" transform="translate(91.031 10.43)">
        <path id="Path_435" data-name="Path 435" d="M106.377,15.611h16.438v4.154a11.3,11.3,0,0,1,10.156-5.543q11.173,0,11.171,14.4V69.715H127.7V29.182q0-3.879-2.586-3.88c-1.538,0-2.3,1.329-2.3,3.972V69.715H106.377Z" transform="translate(-106.377 -14.223)" fill="#546d79"/>
      </g>
      <g id="Group_289" data-name="Group 289" transform="translate(131.748 3.507)">
        <path id="Path_436" data-name="Path 436" d="M126.263,19.153h3.419V10.842h16.988v8.311h4.339v8.862h-4.339V62.174q0,2.224,2.951,2.22h1.388v8.864h-9.052q-7.2,0-9.736-2.723t-2.539-10.019v-32.5h-3.419Z" transform="translate(-126.263 -10.842)" fill="#546d79"/>
      </g>
    </g>
    <g id="Group_303" data-name="Group 303" transform="translate(304.491 32.031)">
      <g id="Group_302" data-name="Group 302" transform="translate(0 0)">
        <g id="Group_300" data-name="Group 300">
          <path id="Path_441" data-name="Path 441" d="M148.653,40.323l2.965-4.6q6.735-10.578,6.736-13.5c0-1.237-.528-1.855-1.577-1.855q-1.738,0-1.74,3.235,0,.909.123,2.33h-6.507V23.844q0-8.206,8.207-8.207a9.3,9.3,0,0,1,5.794,1.658,6.279,6.279,0,0,1,2.486,5.362,14.626,14.626,0,0,1-1.659,6,52.027,52.027,0,0,1-3.548,6.114l-3.155,4.892h7.969V44.4H148.653Z" transform="translate(-148.653 -15.638)" fill="#546d79"/>
        </g>
        <g id="Group_301" data-name="Group 301" transform="translate(18.538 0.594)">
          <path id="Path_442" data-name="Path 442" d="M174.945,38.965h-2.207v5.127h-6.786V38.965h-8.207V37.427q-.04-1.026-.039-1.54a9.177,9.177,0,0,1,.039-1.341l6.2-18.618h8.8v18.3h2.207Zm-8.714-4.734V19.951l-3.514,14.279Z" transform="translate(-157.707 -15.928)" fill="#546d79"/>
        </g>
      </g>
    </g>
    <g id="Group_305" data-name="Group 305" transform="translate(105.543 49.359)">
      <rect id="Rectangle_178" data-name="Rectangle 178" width="12.599" height="5.314" fill="#546d79"/>
    </g>
    <g id="Group_306" data-name="Group 306" transform="translate(0.154 77.913)">
      <rect id="Rectangle_179" data-name="Rectangle 179" width="121.501" height="5.955" fill="#546d79"/>
    </g>
    <g id="Group_307" data-name="Group 307" transform="translate(0 19.523)">
      <rect id="Rectangle_180" data-name="Rectangle 180" width="121.501" height="5.955" fill="#546d79"/>
    </g>
    <g id="Group_310" data-name="Group 310" transform="translate(7.578 33.893)">
      <g id="Group_308" data-name="Group 308">
        <path id="Path_443" data-name="Path 443" d="M24.848,37.345H11.768v8.438H26.377v6.593H3.7V16.829H25.64v6.593H11.768v7.383h13.08Z" transform="translate(-3.701 -16.25)" fill="#546d79"/>
        <path id="Path_444" data-name="Path 444" d="M44.4,51.669a22.9,22.9,0,0,1-9.124,1.53c-12.287,0-18.616-7.648-18.616-17.773,0-12.13,8.649-18.88,19.406-18.88a20.983,20.983,0,0,1,8.755,1.581l-1.634,6.384a17.353,17.353,0,0,0-6.751-1.321c-6.382,0-11.339,3.851-11.339,11.761,0,7.121,4.22,11.6,11.39,11.6a20.089,20.089,0,0,0,6.7-1.161Z" transform="translate(9.873 -16.546)" fill="#546d79"/>
        <path id="Path_445" data-name="Path 445" d="M65.389,34.529c0,11.657-7.068,18.723-17.457,18.723-10.547,0-16.718-7.965-16.718-18.09,0-10.651,6.8-18.616,17.3-18.616C59.429,16.546,65.389,24.72,65.389,34.529ZM39.705,35c0,6.962,3.27,11.867,8.649,11.867,5.432,0,8.544-5.17,8.544-12.078,0-6.382-3.059-11.865-8.6-11.865C42.869,22.928,39.705,28.1,39.705,35Z" transform="translate(25.12 -16.546)" fill="#546d79"/>
      </g>
      <g id="Group_309" data-name="Group 309">
        <path id="Path_446" data-name="Path 446" d="M24.848,37.345H11.768v8.438H26.377v6.593H3.7V16.829H25.64v6.593H11.768v7.383h13.08Z" transform="translate(-3.701 -16.25)" fill="#546d79"/>
        <path id="Path_447" data-name="Path 447" d="M44.4,51.669a22.9,22.9,0,0,1-9.124,1.53c-12.287,0-18.616-7.648-18.616-17.773,0-12.13,8.649-18.88,19.406-18.88a20.983,20.983,0,0,1,8.755,1.581l-1.634,6.384a17.353,17.353,0,0,0-6.751-1.321c-6.382,0-11.339,3.851-11.339,11.761,0,7.121,4.22,11.6,11.39,11.6a20.089,20.089,0,0,0,6.7-1.161Z" transform="translate(9.873 -16.546)" fill="#546d79"/>
        <path id="Path_448" data-name="Path 448" d="M65.389,34.529c0,11.657-7.068,18.723-17.457,18.723-10.547,0-16.718-7.965-16.718-18.09,0-10.651,6.8-18.616,17.3-18.616C59.429,16.546,65.389,24.72,65.389,34.529ZM39.705,35c0,6.962,3.27,11.867,8.649,11.867,5.432,0,8.544-5.17,8.544-12.078,0-6.382-3.059-11.865-8.6-11.865C42.869,22.928,39.705,28.1,39.705,35Z" transform="translate(25.12 -16.546)" fill="#546d79"/>
      </g>
    </g>
    <g id="Group_311" data-name="Group 311" transform="translate(0.315 98.089)">
      <path id="Path_449" data-name="Path 449" d="M12.495,61.8a15.685,15.685,0,0,1-4.672.788A7.806,7.806,0,0,1,2.128,60.7,6.779,6.779,0,0,1,.154,55.606c.02-4.652,3.407-7.312,8-7.312a9.651,9.651,0,0,1,3.884.686l-.663,2.535a7.744,7.744,0,0,0-3.262-.6c-2.639,0-4.634,1.5-4.634,4.529,0,2.889,1.806,4.593,4.4,4.593a4.288,4.288,0,0,0,1.558-.207V56.9H7.28V54.422h5.215Z" transform="translate(-0.154 -47.463)" fill="#546d79"/>
      <path id="Path_450" data-name="Path 450" d="M7.409,53.7c0-1.495-.041-2.473-.082-3.346h2.721l.1,1.869h.082a2.985,2.985,0,0,1,2.744-2.1,3.45,3.45,0,0,1,.663.039v2.973a4.571,4.571,0,0,0-.852-.082,2.028,2.028,0,0,0-2.16,1.6,3.759,3.759,0,0,0-.063.706v5.152H7.409Z" transform="translate(7.36 -45.538)" fill="#546d79"/>
      <path id="Path_451" data-name="Path 451" d="M17.228,60.518,17.041,59.5h-.063a3.66,3.66,0,0,1-2.91,1.247,3.115,3.115,0,0,1-3.282-3.116c0-2.639,2.369-3.907,5.962-3.884V53.6c0-.538-.291-1.308-1.849-1.308a5.7,5.7,0,0,0-2.8.77l-.584-2.037a8.391,8.391,0,0,1,3.948-.893c3.387,0,4.468,1.994,4.468,4.384v3.532a15.661,15.661,0,0,0,.145,2.471Zm-.375-4.8c-1.663-.021-2.951.375-2.951,1.6a1.135,1.135,0,0,0,1.247,1.2,1.722,1.722,0,0,0,1.64-1.163,2.2,2.2,0,0,0,.063-.541Z" transform="translate(10.984 -45.538)" fill="#546d79"/>
      <path id="Path_452" data-name="Path 452" d="M17.32,62.868V55.036H15.991V52.708H17.32v-.436c0-2.805,2.183-4.384,5.319-4.384a6.821,6.821,0,0,1,2.991.622l-.6,2.389a5,5,0,0,0-2.306-.518c-1.663,0-2.244.852-2.244,1.972v.354H26.65v10.16H23.491V55.036H20.5v7.832Z" transform="translate(16.436 -47.888)" fill="#546d79"/>
      <path id="Path_453" data-name="Path 453" d="M25.59,56.87h.043c.229-.414.477-.829.727-1.224l2.058-3.055h3.8L28.584,56.7l4.154,6.046H28.854L26.4,58.573l-.811,1v3.18H22.433V48H25.59Z" transform="translate(23.184 -47.771)" fill="#546d79"/>
      <path id="Path_454" data-name="Path 454" d="M27.983,48.6a28.354,28.354,0,0,1,4.279-.289c2.66,0,4.384.477,5.733,1.495a6.19,6.19,0,0,1,2.369,5.276,7.112,7.112,0,0,1-2.326,5.674c-1.476,1.224-3.72,1.806-6.462,1.806a27.322,27.322,0,0,1-3.593-.207Zm3.178,11.427a5.915,5.915,0,0,0,1.1.061c2.867.023,4.736-1.556,4.736-4.9.02-2.91-1.683-4.447-4.4-4.447a6.466,6.466,0,0,0-1.433.127Z" transform="translate(29.02 -47.441)" fill="#546d79"/>
      <path id="Path_455" data-name="Path 455" d="M37.721,56.446c.1,1.31,1.392,1.933,2.867,1.933a8.941,8.941,0,0,0,2.805-.416l.416,2.14a10.02,10.02,0,0,1-3.677.624c-3.448,0-5.422-2-5.422-5.174,0-2.576,1.6-5.422,5.131-5.422,3.282,0,4.529,2.555,4.529,5.07a7.313,7.313,0,0,1-.1,1.245Zm3.718-2.16a1.833,1.833,0,0,0-1.785-2.058A2.073,2.073,0,0,0,37.7,54.285Z" transform="translate(36.071 -45.538)" fill="#546d79"/>
      <path id="Path_456" data-name="Path 456" d="M40.627,57.756a6.18,6.18,0,0,0,2.721.768c.954,0,1.349-.334,1.349-.852s-.311-.768-1.495-1.163c-2.1-.708-2.91-1.849-2.889-3.055,0-1.89,1.622-3.323,4.136-3.323a6.826,6.826,0,0,1,2.867.582L46.755,52.9a4.981,4.981,0,0,0-2.2-.584c-.77,0-1.206.313-1.206.831,0,.477.4.727,1.64,1.163,1.933.665,2.744,1.642,2.764,3.137,0,1.892-1.495,3.284-4.4,3.284a7.209,7.209,0,0,1-3.282-.706Z" transform="translate(41.687 -45.538)" fill="#546d79"/>
      <path id="Path_457" data-name="Path 457" d="M48.056,49.68a1.586,1.586,0,0,1-1.7,1.581,1.591,1.591,0,1,1,.023-3.18A1.581,1.581,0,0,1,48.056,49.68ZM44.8,62.666V52.506h3.157v10.16Z" transform="translate(46.556 -47.686)" fill="#546d79"/>
      <path id="Path_458" data-name="Path 458" d="M57.531,50.358c-.041.645-.082,1.5-.082,3.014v5.672c0,1.953-.4,3.552-1.538,4.57a6.265,6.265,0,0,1-4.134,1.247,7.932,7.932,0,0,1-3.657-.788l.622-2.389a6.27,6.27,0,0,0,2.951.768,2.425,2.425,0,0,0,2.639-2.68v-.665h-.041a3.253,3.253,0,0,1-2.744,1.329c-2.514,0-4.3-2.035-4.3-4.965,0-3.26,2.117-5.338,4.611-5.338a3.064,3.064,0,0,1,2.785,1.433h.041l.1-1.206Zm-3.239,4.136a2.516,2.516,0,0,0-.063-.582,1.729,1.729,0,0,0-1.7-1.392c-1.142,0-2.078,1.038-2.078,2.887,0,1.515.749,2.7,2.078,2.7a1.714,1.714,0,0,0,1.663-1.288,2.723,2.723,0,0,0,.1-.831Z" transform="translate(49.216 -45.538)" fill="#546d79"/>
      <path id="Path_459" data-name="Path 459" d="M53.51,53.6c0-1.267-.041-2.346-.084-3.241H56.17l.145,1.392h.061a3.721,3.721,0,0,1,3.137-1.62c2.078,0,3.636,1.37,3.636,4.363v6.024H59.992V54.887c0-1.306-.459-2.2-1.6-2.2a1.686,1.686,0,0,0-1.6,1.183,2.2,2.2,0,0,0-.125.79v5.858H53.51Z" transform="translate(55.692 -45.538)" fill="#546d79"/>
      <path id="Path_460" data-name="Path 460" d="M66.589,52.028v2.1H61.147v-2.1Z" transform="translate(63.786 -43.551)" fill="#546d79"/>
      <path id="Path_461" data-name="Path 461" d="M66.828,48.6a28.382,28.382,0,0,1,4.281-.289c2.658,0,4.382.477,5.733,1.495a6.2,6.2,0,0,1,2.369,5.276,7.107,7.107,0,0,1-2.328,5.674c-1.474,1.224-3.718,1.806-6.46,1.806a27.383,27.383,0,0,1-3.6-.207Zm3.18,11.427a5.9,5.9,0,0,0,1.1.061c2.867.023,4.736-1.556,4.736-4.9.02-2.91-1.683-4.447-4.4-4.447a6.451,6.451,0,0,0-1.433.127Z" transform="translate(69.742 -47.441)" fill="#546d79"/>
      <path id="Path_462" data-name="Path 462" d="M77.182,49.68a1.586,1.586,0,0,1-1.7,1.581,1.591,1.591,0,1,1,.023-3.18A1.581,1.581,0,0,1,77.182,49.68Zm-3.26,12.985V52.506h3.157v10.16Z" transform="translate(77.089 -47.686)" fill="#546d79"/>
      <path id="Path_463" data-name="Path 463" d="M86.658,50.358c-.041.645-.082,1.5-.082,3.014v5.672c0,1.953-.4,3.552-1.538,4.57A6.265,6.265,0,0,1,80.9,64.861a7.932,7.932,0,0,1-3.657-.788l.622-2.389a6.263,6.263,0,0,0,2.95.768,2.425,2.425,0,0,0,2.639-2.68v-.665h-.043a3.244,3.244,0,0,1-2.742,1.329c-2.514,0-4.3-2.035-4.3-4.965,0-3.26,2.119-5.338,4.613-5.338a3.062,3.062,0,0,1,2.783,1.433h.043l.1-1.206Zm-3.241,4.136a2.524,2.524,0,0,0-.061-.582,1.727,1.727,0,0,0-1.7-1.392c-1.143,0-2.078,1.038-2.078,2.887,0,1.515.747,2.7,2.078,2.7a1.712,1.712,0,0,0,1.661-1.288,2.664,2.664,0,0,0,.1-.831Z" transform="translate(79.75 -45.538)" fill="#546d79"/>
      <path id="Path_464" data-name="Path 464" d="M85.9,49.68a1.586,1.586,0,0,1-1.7,1.581,1.591,1.591,0,1,1,.023-3.18A1.582,1.582,0,0,1,85.9,49.68ZM82.636,62.666V52.506h3.157v10.16Z" transform="translate(86.224 -47.686)" fill="#546d79"/>
      <path id="Path_465" data-name="Path 465" d="M89.371,48.821v2.91h2.267v2.328H89.371v3.677c0,1.226.293,1.785,1.249,1.785a5.236,5.236,0,0,0,.934-.082l.022,2.389a6.222,6.222,0,0,1-2.058.27,3.3,3.3,0,0,1-2.371-.872,4.224,4.224,0,0,1-.87-3.014V54.059H84.926V51.731h1.351v-2.2Z" transform="translate(88.714 -46.911)" fill="#546d79"/>
      <path id="Path_466" data-name="Path 466" d="M95.213,60.518,95.026,59.5h-.061a3.663,3.663,0,0,1-2.91,1.247,3.116,3.116,0,0,1-3.284-3.116c0-2.639,2.369-3.907,5.962-3.884V53.6c0-.538-.289-1.308-1.847-1.308a5.706,5.706,0,0,0-2.805.77L89.5,51.024a8.367,8.367,0,0,1,3.946-.893c3.389,0,4.468,1.994,4.468,4.384v3.532a15.919,15.919,0,0,0,.145,2.471Zm-.375-4.8c-1.661-.021-2.948.375-2.948,1.6a1.133,1.133,0,0,0,1.245,1.2,1.725,1.725,0,0,0,1.642-1.163,2.3,2.3,0,0,0,.061-.541Z" transform="translate(92.745 -45.538)" fill="#546d79"/>
      <path id="Path_467" data-name="Path 467" d="M94.453,48H97.61V62.75H94.453Z" transform="translate(98.7 -47.771)" fill="#546d79"/>
      <path id="Path_468" data-name="Path 468" d="M97.294,48.6a28.354,28.354,0,0,1,4.279-.289c2.658,0,4.384.477,5.733,1.495a6.2,6.2,0,0,1,2.371,5.276,7.113,7.113,0,0,1-2.328,5.674c-1.476,1.224-3.72,1.806-6.462,1.806a27.348,27.348,0,0,1-3.593-.207Zm3.178,11.427a5.914,5.914,0,0,0,1.1.061c2.867.023,4.736-1.556,4.736-4.9.023-2.91-1.681-4.447-4.4-4.447a6.473,6.473,0,0,0-1.435.127Z" transform="translate(101.68 -47.441)" fill="#546d79"/>
      <path id="Path_469" data-name="Path 469" d="M104.387,53.7c0-1.495-.041-2.473-.084-3.346h2.723l.1,1.869h.084a2.985,2.985,0,0,1,2.744-2.1,3.451,3.451,0,0,1,.663.039v2.973a4.571,4.571,0,0,0-.852-.082,2.027,2.027,0,0,0-2.16,1.6,3.76,3.76,0,0,0-.063.706v5.152h-3.157Z" transform="translate(109.026 -45.538)" fill="#546d79"/>
      <path id="Path_470" data-name="Path 470" d="M117.768,57.14c0,1.331.043,2.41.082,3.262h-2.74l-.147-1.433H114.9a3.618,3.618,0,0,1-3.18,1.663c-2.056,0-3.573-1.288-3.573-4.427V50.242h3.18v5.465c0,1.474.477,2.367,1.577,2.367a1.7,1.7,0,0,0,1.581-1.1,1.747,1.747,0,0,0,.1-.686V50.242h3.178Z" transform="translate(113.059 -45.422)" fill="#546d79"/>
      <path id="Path_471" data-name="Path 471" d="M122,60.268a7.676,7.676,0,0,1-2.826.459c-3.282,0-5.379-2-5.379-5.195,0-2.973,2.035-5.4,5.815-5.4a7.319,7.319,0,0,1,2.412.393l-.5,2.349a4.318,4.318,0,0,0-1.765-.313,2.849,2.849,0,0,0,.061,5.694,4.9,4.9,0,0,0,1.808-.311Z" transform="translate(118.983 -45.538)" fill="#546d79"/>
      <path id="Path_472" data-name="Path 472" d="M121.816,56.87h.041c.229-.414.479-.829.729-1.224l2.056-3.055h3.8L124.808,56.7l4.156,6.046H125.08l-2.455-4.177-.809,1v3.18h-3.157V48h3.157Z" transform="translate(124.077 -47.771)" fill="#546d79"/>
      <path id="Path_473" data-name="Path 473" d="M131.335,52.028v2.1h-5.442v-2.1Z" transform="translate(131.659 -43.551)" fill="#546d79"/>
      <path id="Path_474" data-name="Path 474" d="M131.574,48.6a27.889,27.889,0,0,1,4.218-.289c2.076,0,3.53.311,4.527,1.1a3.548,3.548,0,0,1,1.288,2.93,3.714,3.714,0,0,1-2.471,3.448v.064A3.531,3.531,0,0,1,141,58.473c.436,1.579.874,3.409,1.145,3.948h-3.241a17.548,17.548,0,0,1-.979-3.262c-.373-1.744-.975-2.224-2.262-2.244h-.956V62.42h-3.137Zm3.137,6.028h1.247c1.579,0,2.512-.79,2.512-2.017,0-1.29-.872-1.933-2.326-1.953a7.723,7.723,0,0,0-1.433.1Z" transform="translate(137.633 -47.441)" fill="#546d79"/>
      <path id="Path_475" data-name="Path 475" d="M140.267,56.446c.1,1.31,1.392,1.933,2.867,1.933a8.941,8.941,0,0,0,2.805-.416l.416,2.14a10.028,10.028,0,0,1-3.677.624c-3.45,0-5.422-2-5.422-5.174,0-2.576,1.6-5.422,5.129-5.422,3.284,0,4.531,2.555,4.531,5.07a7.823,7.823,0,0,1-.1,1.245Zm3.718-2.16a1.834,1.834,0,0,0-1.785-2.058,2.074,2.074,0,0,0-1.953,2.058Z" transform="translate(143.584 -45.538)" fill="#546d79"/>
      <path id="Path_476" data-name="Path 476" d="M142.939,53.765c0-1.329-.041-2.471-.084-3.407H145.6l.145,1.415h.041a3.891,3.891,0,0,1,3.387-1.642c2.224,0,4.218,1.931,4.218,5.172,0,3.7-2.348,5.444-4.611,5.444a3.155,3.155,0,0,1-2.639-1.165H146.1v5.049h-3.157Zm3.157,2.389a3.339,3.339,0,0,0,.061.665,1.916,1.916,0,0,0,1.851,1.5c1.372,0,2.181-1.145,2.181-2.867,0-1.622-.727-2.848-2.14-2.848a1.987,1.987,0,0,0-1.892,1.6,2.612,2.612,0,0,0-.061.563Z" transform="translate(149.45 -45.538)" fill="#546d79"/>
      <path id="Path_477" data-name="Path 477" d="M149.006,53.7c0-1.495-.043-2.473-.084-3.346h2.721l.1,1.869h.084a2.985,2.985,0,0,1,2.744-2.1,3.484,3.484,0,0,1,.665.039v2.973a4.609,4.609,0,0,0-.852-.082,2.028,2.028,0,0,0-2.162,1.6,3.766,3.766,0,0,0-.061.706v5.152h-3.157Z" transform="translate(155.805 -45.538)" fill="#546d79"/>
      <path id="Path_478" data-name="Path 478" d="M163.069,55.324a5.1,5.1,0,0,1-5.36,5.424,4.976,4.976,0,0,1-5.256-5.236,5.071,5.071,0,0,1,5.422-5.381A4.94,4.94,0,0,1,163.069,55.324Zm-7.355.1c0,1.744.727,3.055,2.076,3.055,1.227,0,2.017-1.226,2.017-3.055,0-1.515-.584-3.053-2.017-3.053C156.276,52.375,155.715,53.931,155.715,55.428Z" transform="translate(159.504 -45.538)" fill="#546d79"/>
    </g>
  </g>
</svg>
