<svg xmlns="http://www.w3.org/2000/svg" width="629.823" height="365.46" viewBox="0 0 629.823 365.46">
  <g id="Login_Pic" data-name="Login Pic" transform="translate(-212.63 0)">
    <path id="Path_525" data-name="Path 525" d="M912.128,412.839H417.856a7.913,7.913,0,0,0,0,15.826h14V617.975a7.913,7.913,0,1,0,15.826,0l.12-189.308h396.7l36.577,189.308a7.913,7.913,0,0,0,15.827,0l2.3-189.308h12.915a7.913,7.913,0,0,0,0-15.826Z" transform="translate(-152.21 -262.076)" fill="#ccc"/>
    <path id="Path_526" data-name="Path 526" d="M502.278,371.848v33.51H418.322a16.765,16.765,0,0,1-1.166-33.51q.583-.02,1.166,0Z" transform="translate(-150.957 -256.346)" fill="#f2f2f2"/>
    <path id="Path_527" data-name="Path 527" d="M504.047,404.978a1.289,1.289,0,0,1-1.289,1.289H416.534a17.657,17.657,0,1,1,0-35.315h86.224a1.289,1.289,0,1,1,0,2.578H416.534a15.08,15.08,0,0,0,0,30.159h86.224a1.289,1.289,0,0,1,1.289,1.289Z" transform="translate(-150.664 -256.222)" fill="#1468ab"/>
    <path id="Path_528" data-name="Path 528" d="M504.037,380.756h-90.22a.258.258,0,0,1,0-.516h90.225a.258.258,0,1,1,0,.516Z" transform="translate(-152.715 -257.52)" fill="#ccc"/>
    <path id="Path_529" data-name="Path 529" d="M504.037,387.948h-90.22a.258.258,0,0,1,0-.516h90.225a.258.258,0,1,1,0,.516Z" transform="translate(-152.715 -258.525)" fill="#ccc"/>
    <path id="Path_530" data-name="Path 530" d="M504.037,395.139h-90.22a.258.258,0,1,1,0-.516h90.225a.258.258,0,1,1,0,.516Z" transform="translate(-152.715 -259.53)" fill="#ccc"/>
    <path id="Path_531" data-name="Path 531" d="M504.037,402.331h-90.22a.258.258,0,1,1,0-.516h90.225a.258.258,0,1,1,0,.516Z" transform="translate(-152.715 -260.536)" fill="#ccc"/>
    <path id="Path_532" data-name="Path 532" d="M483.88,330.807v33.51H399.924a16.765,16.765,0,1,1-1.166-33.51q.583-.02,1.166,0Z" transform="translate(-148.386 -250.61)" fill="#f2f2f2"/>
    <path id="Path_533" data-name="Path 533" d="M485.65,363.936a1.289,1.289,0,0,1-1.289,1.289H398.136a17.657,17.657,0,1,1,0-35.315H484.36a1.289,1.289,0,1,1,0,2.578H398.136a15.08,15.08,0,1,0,0,30.159H484.36a1.289,1.289,0,0,1,1.29,1.289Z" transform="translate(-148.092 -250.486)" fill="#3f3d56"/>
    <path id="Path_534" data-name="Path 534" d="M485.639,339.715h-90.22a.258.258,0,0,1,0-.516h90.225a.258.258,0,0,1,0,.516Z" transform="translate(-150.144 -251.784)" fill="#ccc"/>
    <path id="Path_535" data-name="Path 535" d="M485.639,346.907h-90.22a.258.258,0,1,1,0-.516h90.225a.258.258,0,1,1,0,.516Z" transform="translate(-150.144 -252.789)" fill="#ccc"/>
    <path id="Path_536" data-name="Path 536" d="M485.639,354.1h-90.22a.258.258,0,1,1,0-.516h90.225a.258.258,0,1,1,0,.516Z" transform="translate(-150.144 -253.794)" fill="#ccc"/>
    <path id="Path_537" data-name="Path 537" d="M485.639,361.29h-90.22a.258.258,0,0,1,0-.516h90.225a.258.258,0,1,1,0,.516Z" transform="translate(-150.144 -254.8)" fill="#ccc"/>
    <path id="Path_538" data-name="Path 538" d="M594.292,545.145V515.927a4.87,4.87,0,0,0-4.87-4.87H478.637a4.87,4.87,0,0,0-4.87,4.87v29.218Z" transform="translate(-161.131 -275.803)" fill="#ccc"/>
    <rect id="Rectangle_256" data-name="Rectangle 256" width="120.524" height="37.74" transform="translate(312.637 280.299)" fill="#ccc"/>
    <path id="Path_539" data-name="Path 539" d="M473.768,620.029v29.218a4.87,4.87,0,0,0,4.87,4.87H589.423a4.87,4.87,0,0,0,4.87-4.869V620.029Z" transform="translate(-161.131 -291.034)" fill="#ccc"/>
    <circle id="Ellipse_244" data-name="Ellipse 244" cx="3.652" cy="3.652" r="3.652" transform="translate(368.638 249.863)" fill="#fff"/>
    <circle id="Ellipse_245" data-name="Ellipse 245" cx="3.652" cy="3.652" r="3.652" transform="translate(368.638 298.56)" fill="#fff"/>
    <circle id="Ellipse_246" data-name="Ellipse 246" cx="3.652" cy="3.652" r="3.652" transform="translate(368.834 346.225)" fill="#fff"/>
    <path id="Path_540" data-name="Path 540" d="M581.53,472.329v33.51H497.574a16.765,16.765,0,1,1-1.167-33.51q.583-.02,1.167,0Z" transform="translate(-162.033 -270.389)" fill="#f2f2f2"/>
    <path id="Path_541" data-name="Path 541" d="M583.3,505.458a1.289,1.289,0,0,1-1.289,1.289H495.784a17.657,17.657,0,1,1-.021-35.315h86.245a1.289,1.289,0,1,1,0,2.578H495.784a15.08,15.08,0,0,0,0,30.159h86.224A1.289,1.289,0,0,1,583.3,505.458Z" transform="translate(-161.739 -270.265)" fill="#3f3d56"/>
    <path id="Path_542" data-name="Path 542" d="M583.289,481.236h-90.22a.258.258,0,0,1,0-.516h90.225a.258.258,0,1,1,0,.516Z" transform="translate(-163.792 -271.564)" fill="#ccc"/>
    <path id="Path_543" data-name="Path 543" d="M583.289,488.428h-90.22a.258.258,0,0,1,0-.516h90.225a.258.258,0,1,1,0,.516Z" transform="translate(-163.792 -272.569)" fill="#ccc"/>
    <path id="Path_544" data-name="Path 544" d="M583.289,495.619h-90.22a.258.258,0,1,1,0-.516h90.225a.258.258,0,1,1,0,.516Z" transform="translate(-163.792 -273.574)" fill="#ccc"/>
    <path id="Path_545" data-name="Path 545" d="M583.289,502.811h-90.22a.258.258,0,1,1,0-.516h90.225a.258.258,0,1,1,0,.516Z" transform="translate(-163.792 -274.579)" fill="#ccc"/>
    <path id="Path_546" data-name="Path 546" d="M475.24,317.813h-38.25a2.363,2.363,0,0,0-1.047.243l-9.654,4.833a1.759,1.759,0,0,0,0,3.238l9.654,4.833a2.364,2.364,0,0,0,1.047.243h38.251a2.008,2.008,0,0,0,2.119-1.863v-9.666a2.008,2.008,0,0,0-2.119-1.863Z" transform="translate(-154.345 -248.795)" fill="#3f3d56"/>
    <path id="Path_547" data-name="Path 547" d="M484.248,319.676v9.666a2.008,2.008,0,0,1-2.119,1.863h-7.621V317.813h7.621a2.008,2.008,0,0,1,2.119,1.862Z" transform="translate(-161.234 -248.795)" fill="#1468ab"/>
    <path id="Path_553" data-name="Path 553" d="M726.72,408.389l-4.039-1.7-2.771-20.246H683.016l-3,20.163-3.613,1.807a.858.858,0,0,0,.384,1.625h49.6a.858.858,0,0,0,.333-1.649Z" transform="translate(-189.385 -258.387)" fill="#e6e6e6"/>
    <path id="Path_554" data-name="Path 554" d="M781.162,384.838H599.925a3.591,3.591,0,0,1-3.583-3.591V355.691h188.4v25.557a3.591,3.591,0,0,1-3.582,3.591Z" transform="translate(-178.262 -254.089)" fill="#ccc"/>
    <path id="Path_555" data-name="Path 555" d="M784.908,351.262H596.15V241.91a4.333,4.333,0,0,1,4.329-4.328h180.1a4.333,4.333,0,0,1,4.329,4.328Z" transform="translate(-178.235 -237.582)" fill="#3f3d56"/>
    <path id="Path_556" data-name="Path 556" d="M774.923,344.615H608.713a3.341,3.341,0,0,1-3.337-3.337V250.145a3.341,3.341,0,0,1,3.337-3.337h166.21a3.341,3.341,0,0,1,3.337,3.337v91.134a3.341,3.341,0,0,1-3.337,3.337Z" transform="translate(-179.525 -238.871)" fill="#fff"/>
    <path id="Path_557" data-name="Path 557" d="M751.047,397.456a9.992,9.992,0,0,1,15.2,1.955l22.482-4,5.761,13.07-31.828,5.2a10.047,10.047,0,0,1-11.612-16.226Z" transform="translate(-199.426 -259.556)" fill="#ffb6b6"/>
    <path id="Path_558" data-name="Path 558" d="M775.776,406.506l23.438-.292,2.967-.04,47.685-.6s12.949-12.354,24.225-25.073l-1.58-11.431a46.7,46.7,0,0,0-15.659-28.916c-16.149,10.791-25.515,32.15-25.515,32.15l-29.566,7.072-2.958.707-18.371,4.39Z" transform="translate(-203.34 -251.917)" fill="#1468ab"/>
    <path id="Path_559" data-name="Path 559" d="M899.266,498.962H855.517c0,1.875-47.824,3.4-47.824,3.4a17.465,17.465,0,0,0-2.866,2.717,16.858,16.858,0,0,0-3.94,10.867v2.717a16.986,16.986,0,0,0,16.98,16.98h81.4a17,17,0,0,0,16.98-16.98v-2.717A17,17,0,0,0,899.266,498.962Z" transform="translate(-206.85 -274.113)" fill="#e4e4e4"/>
    <rect id="Rectangle_257" data-name="Rectangle 257" width="17.659" height="101.93" transform="translate(642.943 260.851)" fill="#e4e4e4"/>
    <path id="Path_560" data-name="Path 560" d="M799.312,655.813c0,1.908,26.76.738,59.769.738s59.769,1.17,59.769-.738-26.76-17.039-59.769-17.039S799.312,653.9,799.312,655.813Z" transform="translate(-206.63 -293.653)" fill="#e4e4e4"/>
    <path id="Path_561" data-name="Path 561" d="M672.035,399.225H658.892l-6.252-50.693h19.4Z" transform="translate(-91.215 -48.712)" fill="#ffb6b6"/>
    <path id="Path_562" data-name="Path 562" d="M782.534,657.085l-42.377,0v-.536a16.5,16.5,0,0,1,16.493-16.494h25.885Z" transform="translate(-198.362 -293.832)" fill="#2f2e41"/>
    <path id="Path_563" data-name="Path 563" d="M626.88,399.225H613.737l-6.252-50.693h19.4Z" transform="translate(-84.904 -48.712)" fill="#ffb6b6"/>
    <path id="Path_564" data-name="Path 564" d="M737.379,657.085l-42.377,0v-.536a16.5,16.5,0,0,1,16.493-16.494H737.38Z" transform="translate(-192.051 -293.832)" fill="#2f2e41"/>
    <circle id="Ellipse_247" data-name="Ellipse 247" cx="22.851" cy="22.851" r="22.851" transform="translate(636.853 12.966)" fill="#ffb6b6"/>
    <path id="Path_565" data-name="Path 565" d="M897.941,460.046s7.667,40.544-21.506,45.707-71.285,8.792-71.285,8.792l-18.911,88.232-25.407-2.268s3.379-106.211,11.689-114.521S833.35,452.8,833.35,452.8Z" transform="translate(-201.252 -267.661)" fill="#2f2e41"/>
    <path id="Path_566" data-name="Path 566" d="M834.463,441.471l-12.759,12.8s-92.126,14.839-95.681,36.117c-5.366,32.125-11.7,101.983-11.7,101.983l27.7-2.077,10.862-79.41L797.2,500.8l50.421-27.479Z" transform="translate(-194.751 -266.078)" fill="#2f2e41"/>
    <path id="Path_567" data-name="Path 567" d="M895.167,260.686c-2.256-4.256-5.122-12.738-9.675-14.311a36.2,36.2,0,0,0-7.792-1.66l-7.739,2.976,4.212-3.276q-1.23-.073-2.459-.12l-5.222,2.008,2.671-2.078c-4.868-.05-9.893.456-13.665,3.42-3.216,2.526-6.4,12.1-6.917,16.153a30.9,30.9,0,0,0,.568,11.64l1.322,1.257a16.215,16.215,0,0,0,1.037-3.3A15.64,15.64,0,0,1,859,263.237l.072-.041c2.218-1.248,4.909-1.191,7.452-1.1l12.079.435c2.906.1,6.035.288,8.3,2.111a13.668,13.668,0,0,1,3.319,4.808c1.126,2.272,3.326,10.843,3.326,10.843s1.245-1.618,1.841-.414a41.635,41.635,0,0,0,1.733-9.663A18.932,18.932,0,0,0,895.167,260.686Z" transform="translate(-213.473 -238.51)" fill="#2f2e41"/>
    <path id="Path_568" data-name="Path 568" d="M991.239,290.879a9.992,9.992,0,0,0-9.044,12.368L963.82,316.8l5.514,13.176,25.681-19.507a10.047,10.047,0,0,0-3.775-19.593Z" transform="translate(-229.622 -245.027)" fill="#ffb6b6"/>
    <path id="Path_569" data-name="Path 569" d="M976.807,320.8,930.74,371.961s-22.03-7.052-39.067-14.7l-7.654-23.508a46.75,46.75,0,0,1-2.238-16.916c23.619-6.285,51.09,17.1,51.09,17.1l34.483-27.01Z" transform="translate(-218.147 -247.274)" fill="#1468ab"/>
    <path id="Path_570" data-name="Path 570" d="M863.032,444.557c-8.219-2.839-16.717-5.775-25.884-6.877l-.394-.048.109-.381c9.489-33.318,7.121-54.631,2.471-86.646a32.337,32.337,0,0,1,18.537-33.98l.056-.025,26.181-1.664.06,0,19.041,5.6a13.061,13.061,0,0,1,9.348,12.758c-.206,10.529.231,22.284.694,34.729,1.039,27.92,2.114,56.79-3.983,75.522l-.032.1-.081.064a31.054,31.054,0,0,1-19.855,6.974C880.753,450.678,872.031,447.665,863.032,444.557Z" transform="translate(-211.863 -248.393)" fill="#1468ab"/>
    <path id="Path_571" data-name="Path 571" d="M739.251,662.022h-628c-.5,0-.91-.545-.91-1.218s.407-1.217.91-1.217h628c.5,0,.91.545.91,1.217s-.407,1.217-.91,1.217Z" transform="translate(102.293 -296.562)" fill="#ccc"/>
  </g>
</svg>
