<svg xmlns="http://www.w3.org/2000/svg" width="32" height="24.887" viewBox="0 0 32 24.887">
  <g id="Archive" transform="translate(0 -56.902)">
    <g id="Group_359" data-name="Group 359" transform="translate(11.507 74.141)">
      <g id="Group_358" data-name="Group 358">
        <path id="Path_591" data-name="Path 591" d="M192.127,332.734H185.07a.966.966,0,0,0-.965.965v2.165a.966.966,0,0,0,.965.965h7.058a.966.966,0,0,0,.965-.965V333.7A.966.966,0,0,0,192.127,332.734Zm-.276,2.854h-6.506v-1.613h6.506Z" transform="translate(-184.105 -332.734)" fill="#fff"/>
      </g>
    </g>
    <g id="Group_361" data-name="Group 361" transform="translate(0 56.902)">
      <g id="Group_360" data-name="Group 360">
        <path id="Path_592" data-name="Path 592" d="M31.686,68.78l.01,0-4.65-9.194a2.185,2.185,0,0,0-1.959-1.2H24.2v-.855a.62.62,0,0,0-.62-.62H8.417a.62.62,0,0,0-.62.62v.855H6.914a2.185,2.185,0,0,0-1.959,1.2L.3,68.775l.01.005A2.159,2.159,0,0,0,0,69.9v9.713a2.174,2.174,0,0,0,2.172,2.172H29.828A2.174,2.174,0,0,0,32,79.617V69.9A2.159,2.159,0,0,0,31.686,68.78ZM24.2,59.755h.884a.814.814,0,0,1,.729.449l3.808,7.529H27.035V65.416a.62.62,0,0,0-.62-.62h-.767V61.469a.62.62,0,0,0-.62-.62H24.2Zm1.592,6.281v1.7H22.522a1.433,1.433,0,0,0-1.3.843l-.893,1.982a.053.053,0,0,1-.048.031H11.723a.053.053,0,0,1-.048-.031l-.893-1.982a1.433,1.433,0,0,0-1.3-.843H6.206v-1.7ZM9.038,58.142H22.962v2.707H9.038Zm15.369,3.947V64.8H7.593V62.089ZM6.184,60.2a.814.814,0,0,1,.729-.449H7.8v1.094H6.973a.62.62,0,0,0-.62.62V64.8H5.586a.62.62,0,0,0-.62.62v2.317H2.376ZM29.828,80.411H2.172a.8.8,0,0,1-.794-.794V69.9a.8.8,0,0,1,.794-.794H9.478a.053.053,0,0,1,.048.031l.893,1.982a1.433,1.433,0,0,0,1.3.843h8.553a1.433,1.433,0,0,0,1.3-.842l.893-1.982h0a.053.053,0,0,1,.048-.031h7.306a.8.8,0,0,1,.794.794v9.713h0A.8.8,0,0,1,29.828,80.411Z" transform="translate(0 -56.902)" fill="#fff"/>
      </g>
    </g>
  </g>
</svg>
