<svg xmlns="http://www.w3.org/2000/svg" width="25.141" height="32" viewBox="0 0 25.141 32">
  <g id="Attendece" transform="translate(-47.037)">
    <g id="Group_357" data-name="Group 357" transform="translate(47.037 0)">
      <g id="Group_356" data-name="Group 356" transform="translate(0 0)">
        <path id="Path_584" data-name="Path 584" d="M68.978,4.193h-2.9V2.9c0-.419-.457-.609-.876-.609H62.96A3.407,3.407,0,0,0,59.569,0a3.466,3.466,0,0,0-3.39,2.286H53.97c-.419,0-.838.19-.838.609v1.3h-2.9a3.238,3.238,0,0,0-3.2,3.085V29.105a3.065,3.065,0,0,0,3.2,2.9H68.978a3.065,3.065,0,0,0,3.2-2.9V7.278A3.238,3.238,0,0,0,68.978,4.193ZM54.655,3.812h2.1a.838.838,0,0,0,.724-.686,2.209,2.209,0,0,1,2.1-1.714,2.171,2.171,0,0,1,2.057,1.714.838.838,0,0,0,.762.686H64.56V6.859h-9.9Zm16,25.293a1.545,1.545,0,0,1-1.676,1.371H50.237a1.545,1.545,0,0,1-1.676-1.371V7.278a1.714,1.714,0,0,1,1.676-1.562h2.9V7.659a.8.8,0,0,0,.838.724H65.207a.838.838,0,0,0,.876-.724V5.716h2.9a1.714,1.714,0,0,1,1.676,1.562V29.105Z" transform="translate(-47.037 0)" fill="#fff"/>
        <path id="Path_585" data-name="Path 585" d="M105.2,230.549a.762.762,0,0,0-1.067-.038l-2.438,2.324-1.028-1.067a.762.762,0,0,0-1.067-.038.8.8,0,0,0,0,1.1l1.562,1.6a.686.686,0,0,0,.533.229.762.762,0,0,0,.533-.229l2.971-2.819a.724.724,0,0,0,.044-1.023C105.232,230.578,105.217,230.563,105.2,230.549Z" transform="translate(-95.564 -213.519)" fill="#fff"/>
        <path id="Path_586" data-name="Path 586" d="M208.071,256.034H199.31a.762.762,0,1,0,0,1.524h8.761a.762.762,0,0,0,0-1.524Z" transform="translate(-187.501 -237.366)" fill="#fff"/>
        <path id="Path_587" data-name="Path 587" d="M105.2,146.957a.762.762,0,0,0-1.067-.038l-2.438,2.324-1.028-1.067a.762.762,0,0,0-1.067-.038.8.8,0,0,0,0,1.1l1.562,1.6a.686.686,0,0,0,.533.229.762.762,0,0,0,.533-.229l2.971-2.819a.724.724,0,0,0,.044-1.023C105.232,146.986,105.217,146.971,105.2,146.957Z" transform="translate(-95.564 -136.022)" fill="#fff"/>
        <path id="Path_588" data-name="Path 588" d="M208.071,172.442H199.31a.762.762,0,0,0,0,1.524h8.761a.762.762,0,0,0,0-1.524Z" transform="translate(-187.501 -159.869)" fill="#fff"/>
        <path id="Path_589" data-name="Path 589" d="M105.2,314.14a.762.762,0,0,0-1.067-.038l-2.438,2.324-1.028-1.067a.762.762,0,0,0-1.067-.038.8.8,0,0,0,0,1.1l1.562,1.6a.686.686,0,0,0,.533.229.762.762,0,0,0,.533-.229l2.971-2.819a.724.724,0,0,0,.044-1.023C105.232,314.169,105.217,314.154,105.2,314.14Z" transform="translate(-95.564 -291.016)" fill="#fff"/>
        <path id="Path_590" data-name="Path 590" d="M208.071,339.626H199.31a.762.762,0,1,0,0,1.524h8.761a.762.762,0,0,0,0-1.524Z" transform="translate(-187.501 -314.863)" fill="#fff"/>
      </g>
    </g>
  </g>
</svg>
