<svg xmlns="http://www.w3.org/2000/svg" width="28" height="32" viewBox="0 0 28 32">
  <path id="Branch" d="M8,9.25V6.75A.752.752,0,0,1,8.75,6h2.5a.752.752,0,0,1,.75.75v2.5a.752.752,0,0,1-.75.75H8.75A.752.752,0,0,1,8,9.25Zm8.75.75h2.5A.752.752,0,0,0,20,9.25V6.75A.752.752,0,0,0,19.25,6h-2.5a.752.752,0,0,0-.75.75v2.5A.752.752,0,0,0,16.75,10Zm-8,6h2.5a.752.752,0,0,0,.75-.75v-2.5a.752.752,0,0,0-.75-.75H8.75a.752.752,0,0,0-.75.75v2.5A.752.752,0,0,0,8.75,16Zm8,0h2.5a.752.752,0,0,0,.75-.75v-2.5a.752.752,0,0,0-.75-.75h-2.5a.752.752,0,0,0-.75.75v2.5A.752.752,0,0,0,16.75,16ZM12,21.25v-2.5a.752.752,0,0,0-.75-.75H8.75a.752.752,0,0,0-.75.75v2.5a.752.752,0,0,0,.75.75h2.5A.752.752,0,0,0,12,21.25Zm4.75.75h2.5a.752.752,0,0,0,.75-.75v-2.5a.752.752,0,0,0-.75-.75h-2.5a.752.752,0,0,0-.75.75v2.5A.752.752,0,0,0,16.75,22ZM28,29.75V32H0V29.75A.752.752,0,0,1,.75,29H1.969V1.5A1.5,1.5,0,0,1,3.469,0H24.531a1.5,1.5,0,0,1,1.5,1.5V29H27.25A.752.752,0,0,1,28,29.75ZM4.969,28.938H12V24.75a.752.752,0,0,1,.75-.75h2.5a.752.752,0,0,1,.75.75v4.188h7.031V3.063L5,3Z" fill="#fff"/>
</svg>
