<svg xmlns="http://www.w3.org/2000/svg" width="32" height="32.015" viewBox="0 0 32 32.015">
  <g id="Category" transform="translate(395.726 -56.017)">
    <path id="Path_597" data-name="Path 597" d="M-381.327,64.365q0,2.45,0,4.9a1.058,1.058,0,0,1-1.156,1.159q-4.816,0-9.631,0a3.55,3.55,0,0,1-3.608-3.607q-.006-3.6,0-7.2a3.549,3.549,0,0,1,3.589-3.592q3.616-.008,7.232,0a3.548,3.548,0,0,1,3.574,3.573C-381.323,61.187-381.327,62.776-381.327,64.365Zm-2.131,3.929v-.377q0-4.067,0-8.134a1.472,1.472,0,0,0-1.629-1.629h-6.864a1.475,1.475,0,0,0-1.641,1.649q0,3.417,0,6.834a1.481,1.481,0,0,0,1.668,1.656h8.466Z" transform="translate(0 -0.003)" fill="#fff"/>
    <path id="Path_598" data-name="Path 598" d="M-192.057,70.422q-2.433,0-4.866,0a1.061,1.061,0,0,1-1.165-1.15q0-4.834,0-9.669a3.547,3.547,0,0,1,3.565-3.582q3.633-.009,7.265,0a3.546,3.546,0,0,1,3.564,3.582q.008,3.617,0,7.235a3.551,3.551,0,0,1-3.6,3.583C-188.88,70.426-190.468,70.422-192.057,70.422Zm-3.9-2.132h8.507a1.473,1.473,0,0,0,1.628-1.63q0-3.433,0-6.867a1.477,1.477,0,0,0-1.65-1.642H-194.3a1.479,1.479,0,0,0-1.654,1.669q0,4.033,0,8.067Z" transform="translate(-180.037 0)" fill="#fff"/>
    <path id="Path_599" data-name="Path 599" d="M-387.389,253.748h4.866a1.068,1.068,0,0,1,1.2,1.183q0,4.8,0,9.6a3.549,3.549,0,0,1-3.6,3.617q-3.6.007-7.2,0a3.552,3.552,0,0,1-3.6-3.616q-.005-3.584,0-7.168a3.55,3.55,0,0,1,3.6-3.616C-390.544,253.745-388.966,253.748-387.389,253.748Zm3.934,2.132h-.355q-4.082,0-8.163,0a1.466,1.466,0,0,0-1.616,1.608q0,3.45,0,6.9a1.472,1.472,0,0,0,1.627,1.631q3.432,0,6.864,0a1.478,1.478,0,0,0,1.644-1.648q0-4.067,0-8.134Z" transform="translate(-0.004 -180.122)" fill="#fff"/>
    <path id="Path_600" data-name="Path 600" d="M-192.013,253.751c1.566,0,3.133,0,4.7,0a3.549,3.549,0,0,1,3.623,3.625q.005,3.584,0,7.168a3.548,3.548,0,0,1-3.607,3.608q-3.6.007-7.2,0a3.549,3.549,0,0,1-3.589-3.592q-.006-4.834,0-9.669a1.057,1.057,0,0,1,1.141-1.14Q-194.479,253.749-192.013,253.751Zm-3.943,2.132v.368q0,4.067,0,8.133a1.477,1.477,0,0,0,1.654,1.637h6.831a1.478,1.478,0,0,0,1.65-1.642q0-3.417,0-6.833a1.482,1.482,0,0,0-1.661-1.664h-8.474Z" transform="translate(-180.038 -180.125)" fill="#fff"/>
  </g>
</svg>
