<svg xmlns="http://www.w3.org/2000/svg" width="32" height="27.875" viewBox="0 0 32 27.875">
  <g id="customer" transform="translate(0 -33)">
    <path id="Path_580" data-name="Path 580" d="M174.438,43.875A5.437,5.437,0,1,0,169,38.438,5.444,5.444,0,0,0,174.438,43.875Zm0-9a3.562,3.562,0,1,1-3.562,3.563A3.567,3.567,0,0,1,174.438,34.875Z" transform="translate(-158.438)" fill="#fff"/>
    <path id="Path_581" data-name="Path 581" d="M380.438,103.875A3.437,3.437,0,1,0,377,100.438,3.441,3.441,0,0,0,380.438,103.875Zm0-5a1.562,1.562,0,1,1-1.562,1.562A1.564,1.564,0,0,1,380.438,98.875Z" transform="translate(-353.438 -60)" fill="#fff"/>
    <path id="Path_582" data-name="Path 582" d="M27.756,241h-1.45a4.25,4.25,0,0,0-3.856,2.459A7.546,7.546,0,0,0,16.874,241H15.126a7.546,7.546,0,0,0-5.577,2.459A4.25,4.25,0,0,0,5.694,241H4.244A4.236,4.236,0,0,0,0,245.218v6.825a1.837,1.837,0,0,0,1.838,1.831H7.571a2.192,2.192,0,0,0,2.18,2h12.5a2.192,2.192,0,0,0,2.18-2H30.1a1.9,1.9,0,0,0,1.9-1.9v-6.76A4.236,4.236,0,0,0,27.756,241ZM1.875,245.218a2.359,2.359,0,0,1,2.369-2.343h1.45a2.359,2.359,0,0,1,2.369,2.343v.642c-.63,1.641-.5,2.625-.5,6.14H1.875Zm20.687,8.468a.314.314,0,0,1-.314.314H9.751a.314.314,0,0,1-.314-.314v-5.122a5.7,5.7,0,0,1,5.689-5.689h1.747a5.7,5.7,0,0,1,5.689,5.689Zm7.562-1.708c0,.032.35.021-5.687.021,0-3.541.129-4.5-.5-6.14v-.642a2.359,2.359,0,0,1,2.369-2.343h1.45a2.359,2.359,0,0,1,2.369,2.343Z" transform="translate(0 -195)" fill="#fff"/>
    <path id="Path_583" data-name="Path 583" d="M28.438,103.875A3.437,3.437,0,1,0,25,100.438,3.441,3.441,0,0,0,28.438,103.875Zm0-5a1.562,1.562,0,1,1-1.562,1.562A1.564,1.564,0,0,1,28.438,98.875Z" transform="translate(-23.438 -60)" fill="#fff"/>
  </g>
</svg>
