<svg id="Daily_task" data-name="Daily task" xmlns="http://www.w3.org/2000/svg" width="28" height="28" viewBox="0 0 28 28">
  <g id="Group_363" data-name="Group 363">
    <g id="Group_362" data-name="Group 362">
      <path id="Path_593" data-name="Path 593" d="M21.875,0H6.125A6.125,6.125,0,0,0,0,6.125v15.75A6.125,6.125,0,0,0,6.125,28h15.75A6.125,6.125,0,0,0,28,21.875V6.125A6.125,6.125,0,0,0,21.875,0ZM26.25,21.875a4.375,4.375,0,0,1-4.375,4.375H6.125A4.375,4.375,0,0,1,1.75,21.875V6.125A4.375,4.375,0,0,1,6.125,1.75h15.75A4.375,4.375,0,0,1,26.25,6.125Z" fill="#fff"/>
      <path id="Path_594" data-name="Path 594" d="M114.625,112h-1.75a.875.875,0,0,0-.875.875v1.75a.875.875,0,0,0,.875.875h1.75a.875.875,0,0,0,.875-.875v-1.75A.875.875,0,0,0,114.625,112Z" transform="translate(-105.875 -105.875)" fill="#fff"/>
      <path id="Path_595" data-name="Path 595" d="M114.625,224h-1.75a.875.875,0,0,0-.875.875v1.75a.875.875,0,0,0,.875.875h1.75a.875.875,0,0,0,.875-.875v-1.75A.875.875,0,0,0,114.625,224Z" transform="translate(-105.875 -211.75)" fill="#fff"/>
      <path id="Path_596" data-name="Path 596" d="M114.625,336h-1.75a.875.875,0,0,0-.875.875v1.75a.875.875,0,0,0,.875.875h1.75a.875.875,0,0,0,.875-.875v-1.75A.875.875,0,0,0,114.625,336Z" transform="translate(-105.875 -317.625)" fill="#fff"/>
      <rect id="Rectangle_261" data-name="Rectangle 261" width="10.5" height="1.75" transform="translate(11.375 7)" fill="#fff"/>
      <rect id="Rectangle_262" data-name="Rectangle 262" width="10.5" height="1.75" transform="translate(11.375 13.125)" fill="#fff"/>
      <rect id="Rectangle_263" data-name="Rectangle 263" width="10.5" height="1.75" transform="translate(11.375 19.25)" fill="#fff"/>
    </g>
  </g>
</svg>
