<svg xmlns="http://www.w3.org/2000/svg" width="32" height="25.6" viewBox="0 0 32 25.6">
  <path id="Dep" d="M5.2,13.6h9.6V16h2.4V13.6h9.6V16h2.4V13.121A1.923,1.923,0,0,0,27.28,11.2H17.2V8h2a1.6,1.6,0,0,0,1.6-1.6V1.6A1.6,1.6,0,0,0,19.2,0H12.8a1.6,1.6,0,0,0-1.6,1.6V6.4A1.6,1.6,0,0,0,12.8,8h2v3.2H4.721A1.922,1.922,0,0,0,2.8,13.121V16H5.2Zm8.4-8V2.4h4.8V5.6Zm16.8,12H25.6A1.6,1.6,0,0,0,24,19.2V24a1.6,1.6,0,0,0,1.6,1.6h4.8A1.6,1.6,0,0,0,32,24V19.2A1.6,1.6,0,0,0,30.4,17.6Zm-.8,5.6H26.4V20h3.2ZM18.4,17.6H13.6A1.6,1.6,0,0,0,12,19.2V24a1.6,1.6,0,0,0,1.6,1.6h4.8A1.6,1.6,0,0,0,20,24V19.2A1.6,1.6,0,0,0,18.4,17.6Zm-.8,5.6H14.4V20h3.2ZM6.4,17.6H1.6A1.6,1.6,0,0,0,0,19.2V24a1.6,1.6,0,0,0,1.6,1.6H6.4A1.6,1.6,0,0,0,8,24V19.2A1.6,1.6,0,0,0,6.4,17.6Zm-.8,5.6H2.4V20H5.6Z" fill="#fff"/>
</svg>
