<svg id="Emp" xmlns="http://www.w3.org/2000/svg" width="27.555" height="32" viewBox="0 0 27.555 32">
  <g id="Group_14" data-name="Group 14">
    <path id="Path_2" data-name="Path 2" d="M143.966,17.242h.215a6.225,6.225,0,0,0,4.729-2.021c2.583-2.876,2.153-7.806,2.106-8.277-.168-3.532-1.858-5.222-3.254-6.01A7.53,7.53,0,0,0,144.153,0h-.114a7.545,7.545,0,0,0-3.609.908c-1.409.789-3.126,2.478-3.294,6.037-.047.47-.476,5.4,2.106,8.277A6.2,6.2,0,0,0,143.966,17.242ZM138.928,7.11c0-.02.007-.04.007-.053.221-4.751,3.636-5.262,5.1-5.262h.08c1.811.04,4.89.769,5.1,5.262a.128.128,0,0,0,.007.053c.007.046.476,4.552-1.657,6.925a4.423,4.423,0,0,1-3.455,1.418h-.067a4.408,4.408,0,0,1-3.448-1.418C138.465,11.676,138.921,7.15,138.928,7.11Z" transform="translate(-130.306)" fill="#fff" opacity="0.65"/>
    <path id="Path_3" data-name="Path 3" d="M63.626,267.485v-.02c0-.053-.007-.106-.007-.166-.04-1.312-.127-4.38-3.039-5.361l-.067-.02a19.461,19.461,0,0,1-5.568-2.5.912.912,0,0,0-1.261.219.887.887,0,0,0,.221,1.246,21,21,0,0,0,6.125,2.763c1.563.55,1.737,2.2,1.784,3.711a1.315,1.315,0,0,0,.007.166,11.885,11.885,0,0,1-.141,2.048,24.926,24.926,0,0,1-11.827,2.717,25.071,25.071,0,0,1-11.833-2.724,11.251,11.251,0,0,1-.141-2.048c0-.053.007-.106.007-.166.047-1.511.221-3.161,1.784-3.711a21.2,21.2,0,0,0,6.125-2.763.887.887,0,0,0,.221-1.246.912.912,0,0,0-1.261-.219,19.247,19.247,0,0,1-5.568,2.5c-.027.007-.047.013-.067.02-2.911.987-3,4.056-3.039,5.361a1.315,1.315,0,0,1-.007.166v.02a10.044,10.044,0,0,0,.342,3,.853.853,0,0,0,.349.417c.2.133,5.025,3.168,13.095,3.168s12.893-3.042,13.095-3.168a.89.89,0,0,0,.349-.417A10.537,10.537,0,0,0,63.626,267.485Z" transform="translate(-36.073 -242.065)" fill="#fff" opacity="0.65"/>
  </g>
</svg>
