<svg xmlns="http://www.w3.org/2000/svg" width="211.769" height="67.699" viewBox="0 0 211.769 67.699">
  <g id="Logo_Wight" data-name="Logo Wight" transform="translate(0 0.499)">
    <path id="Subtraction_2" data-name="Subtraction 2" d="M16.376,44.675A17.222,17.222,0,0,1,0,32.707H2.714a14.665,14.665,0,0,0,27.319,0h2.715A17.218,17.218,0,0,1,16.376,44.675ZM2.714,22.052H0A17.242,17.242,0,0,1,14.39,10.245V0h1.985A26.935,26.935,0,0,1,28.908,3.052a27.809,27.809,0,0,1,9.5,8.128h-5.2A23.365,23.365,0,0,0,18.36,4.051v6.193a17.242,17.242,0,0,1,14.387,11.8l-2.714,0a14.663,14.663,0,0,0-27.319,0Z" transform="translate(168.025 0.001)" fill="#fff" stroke="rgba(0,0,0,0)" stroke-miterlimit="10" stroke-width="1"/>
    <g id="Group_284" data-name="Group 284" transform="translate(0 12.5)">
      <g id="Group_273" data-name="Group 273" transform="translate(207.136 18.672)">
        <path id="Path_421" data-name="Path 421" d="M176.695,28.383h4.091c.122-.588.2-1.191.284-1.792h-4.011Q176.911,27.5,176.695,28.383Z" transform="translate(-176.695 -26.591)" fill="#fff"/>
      </g>
      <g id="Group_274" data-name="Group 274" transform="translate(206.147 21.784)">
        <path id="Path_422" data-name="Path 422" d="M175.851,31.037h4.221c.2-.588.367-1.186.524-1.791h-4.1C176.312,29.856,176.087,30.45,175.851,31.037Z" transform="translate(-175.851 -29.246)" fill="#fff"/>
      </g>
      <g id="Group_275" data-name="Group 275" transform="translate(204.617 24.896)">
        <path id="Path_423" data-name="Path 423" d="M174.546,33.692h4.482c.282-.588.552-1.182.792-1.792h-4.33C175.2,32.513,174.886,33.111,174.546,33.692Z" transform="translate(-174.546 -31.9)" fill="#fff"/>
      </g>
      <g id="Group_276" data-name="Group 276" transform="translate(207.702 15.56)">
        <path id="Path_424" data-name="Path 424" d="M177.274,23.936c-.016.6-.035,1.2-.1,1.792h3.976c.053-.592.076-1.191.09-1.792Z" transform="translate(-177.178 -23.936)" fill="#fff"/>
      </g>
      <g id="Group_277" data-name="Group 277" transform="translate(202.469 28.008)">
        <path id="Path_425" data-name="Path 425" d="M172.714,36.347h4.9q.57-.874,1.073-1.792h-4.633Q173.427,35.483,172.714,36.347Z" transform="translate(-172.714 -34.555)" fill="#fff"/>
      </g>
      <g id="Group_278" data-name="Group 278" transform="translate(202.366)">
        <path id="Path_426" data-name="Path 426" d="M174,12.455h4.71c-.336-.615-.709-1.207-1.09-1.792h-5C173.108,11.242,173.579,11.829,174,12.455Z" transform="translate(-172.626 -10.663)" fill="#fff"/>
      </g>
      <g id="Group_279" data-name="Group 279" transform="translate(204.575 3.111)">
        <path id="Path_427" data-name="Path 427" d="M175.427,15.109h4.4c-.24-.61-.508-1.2-.789-1.792H174.51C174.849,13.895,175.137,14.5,175.427,15.109Z" transform="translate(-174.51 -13.317)" fill="#fff"/>
      </g>
      <g id="Group_280" data-name="Group 280" transform="translate(0 31.121)">
        <path id="Path_428" data-name="Path 428" d="M184.4,44.421H0V48.39H185.008v-.008A27.355,27.355,0,0,0,206.433,37.21H201.27A23.352,23.352,0,0,1,184.4,44.421Z" transform="translate(0 -37.21)" fill="#fff"/>
      </g>
      <g id="Group_281" data-name="Group 281" transform="translate(206.167 6.224)">
        <path id="Path_429" data-name="Path 429" d="M176.4,17.764h4.2c-.158-.6-.324-1.205-.521-1.792h-4.2C176.1,16.545,176.213,17.17,176.4,17.764Z" transform="translate(-175.868 -15.972)" fill="#fff"/>
      </g>
      <g id="Group_282" data-name="Group 282" transform="translate(207.083 9.336)">
        <path id="Path_430" data-name="Path 430" d="M177.037,20.419h4.041c-.083-.6-.158-1.205-.279-1.792H176.65C176.8,19.22,176.937,19.809,177.037,20.419Z" transform="translate(-176.65 -18.627)" fill="#fff"/>
      </g>
      <g id="Group_283" data-name="Group 283" transform="translate(207.597 12.447)">
        <path id="Path_431" data-name="Path 431" d="M177.26,23.073h4c-.014-.6-.038-1.2-.09-1.792h-4.081C177.151,21.878,177.243,22.465,177.26,23.073Z" transform="translate(-177.088 -21.281)" fill="#fff"/>
      </g>
    </g>
    <g id="Group_290" data-name="Group 290" transform="translate(72.585 10.701)">
      <g id="Group_285" data-name="Group 285">
        <path id="Path_432" data-name="Path 432" d="M61.918,9.129h12.74q8.933,0,8.933,8.615V22.4q0,6.135-3.278,7.929-2.114,1.162-8.986,1.163V46.872h-9.41Zm9.41,16.016h1.692a2.033,2.033,0,0,0,2.326-2.272V17.744a2.034,2.034,0,0,0-2.326-2.273H71.328Z" transform="translate(-61.918 -9.129)" fill="#fff"/>
      </g>
      <g id="Group_286" data-name="Group 286" transform="translate(23.733 5.972)">
        <path id="Path_433" data-name="Path 433" d="M82.163,15.018h9.092v3.963a7.664,7.664,0,0,1,5.92-4.758V25.484l-1.482-.107q-4.118-.317-4.121,4.07V45.994h-9.41Z" transform="translate(-82.163 -14.223)" fill="#fff"/>
      </g>
      <g id="Group_287" data-name="Group 287" transform="translate(40.12)">
        <path id="Path_434" data-name="Path 434" d="M96.142,9.129h9.409v4.756H96.142Zm0,6.766h9.409V46.872H96.142Z" transform="translate(-96.142 -9.129)" fill="#fff"/>
      </g>
      <g id="Group_288" data-name="Group 288" transform="translate(52.118 5.972)">
        <path id="Path_435" data-name="Path 435" d="M106.377,15.018h9.411V17.4a6.471,6.471,0,0,1,5.815-3.173q6.4,0,6.4,8.247V45.994h-9.411V22.788q0-2.221-1.481-2.221c-.88,0-1.319.761-1.319,2.274V45.994h-9.411Z" transform="translate(-106.377 -14.223)" fill="#fff"/>
      </g>
      <g id="Group_289" data-name="Group 289" transform="translate(75.43 2.008)">
        <path id="Path_436" data-name="Path 436" d="M126.263,15.6h1.958V10.842h9.726V15.6h2.484v5.074h-2.484V40.231q0,1.273,1.689,1.271h.795v5.075h-5.183q-4.122,0-5.574-1.559t-1.454-5.736V20.674h-1.958Z" transform="translate(-126.263 -10.842)" fill="#fff"/>
      </g>
    </g>
    <g id="Group_303" data-name="Group 303" transform="translate(174.263 18.332)">
      <g id="Group_302" data-name="Group 302" transform="translate(0 0)">
        <g id="Group_300" data-name="Group 300">
          <path id="Path_441" data-name="Path 441" d="M148.653,29.771l1.7-2.633q3.856-6.056,3.857-7.728c0-.708-.3-1.062-.9-1.062q-1,0-1,1.852,0,.52.07,1.334h-3.726v-1.2q0-4.7,4.7-4.7a5.327,5.327,0,0,1,3.318.95,3.6,3.6,0,0,1,1.423,3.07,8.374,8.374,0,0,1-.95,3.435,29.79,29.79,0,0,1-2.032,3.5l-1.806,2.8h4.563V32.1h-9.214Z" transform="translate(-148.653 -15.638)" fill="#fff"/>
        </g>
        <g id="Group_301" data-name="Group 301" transform="translate(10.614 0.34)">
          <path id="Path_442" data-name="Path 442" d="M167.576,29.117h-1.264v2.935h-3.885V29.117h-4.7v-.88q-.023-.587-.022-.882a5.252,5.252,0,0,1,.022-.768l3.547-10.66h5.036V26.407h1.264Zm-4.989-2.71V18.232l-2.012,8.175Z" transform="translate(-157.707 -15.928)" fill="#fff"/>
        </g>
      </g>
    </g>
    <g id="Group_305" data-name="Group 305" transform="translate(60.407 28.25)">
      <rect id="Rectangle_178" data-name="Rectangle 178" width="7.213" height="3.042" fill="#fff"/>
    </g>
    <g id="Group_306" data-name="Group 306" transform="translate(0.088 44.593)">
      <rect id="Rectangle_179" data-name="Rectangle 179" width="69.563" height="3.409" fill="#fff"/>
    </g>
    <g id="Group_307" data-name="Group 307" transform="translate(0 11.174)">
      <rect id="Rectangle_180" data-name="Rectangle 180" width="69.563" height="3.409" fill="#fff"/>
    </g>
    <g id="Group_310" data-name="Group 310" transform="translate(4.339 19.396)">
      <g id="Group_308" data-name="Group 308">
        <path id="Path_443" data-name="Path 443" d="M15.808,28.575H8.32v4.831h8.364v3.775H3.7V16.829H16.262V20.6H8.32v4.227h7.489Z" transform="translate(-3.701 -16.497)" fill="#fff"/>
        <path id="Path_444" data-name="Path 444" d="M32.541,36.655a13.108,13.108,0,0,1-5.224.876c-7.035,0-10.658-4.378-10.658-10.175,0-6.945,4.952-10.81,11.111-10.81a12.014,12.014,0,0,1,5.013.9l-.935,3.655a9.935,9.935,0,0,0-3.865-.756c-3.654,0-6.492,2.205-6.492,6.734,0,4.077,2.416,6.643,6.521,6.643a11.5,11.5,0,0,0,3.836-.665Z" transform="translate(-1.469 -16.546)" fill="#fff"/>
        <path id="Path_445" data-name="Path 445" d="M50.781,26.842c0,6.674-4.047,10.719-9.995,10.719-6.038,0-9.572-4.56-9.572-10.357,0-6.1,3.9-10.658,9.9-10.658C47.368,16.546,50.781,21.226,50.781,26.842Zm-14.705.272c0,3.986,1.872,6.795,4.952,6.795,3.11,0,4.892-2.96,4.892-6.915,0-3.654-1.751-6.793-4.922-6.793C37.887,20.2,36.075,23.159,36.075,27.114Z" transform="translate(1.039 -16.546)" fill="#fff"/>
      </g>
      <g id="Group_309" data-name="Group 309">
        <path id="Path_446" data-name="Path 446" d="M15.808,28.575H8.32v4.831h8.364v3.775H3.7V16.829H16.262V20.6H8.32v4.227h7.489Z" transform="translate(-3.701 -16.497)" fill="#fff"/>
        <path id="Path_447" data-name="Path 447" d="M32.541,36.655a13.108,13.108,0,0,1-5.224.876c-7.035,0-10.658-4.378-10.658-10.175,0-6.945,4.952-10.81,11.111-10.81a12.014,12.014,0,0,1,5.013.9l-.935,3.655a9.935,9.935,0,0,0-3.865-.756c-3.654,0-6.492,2.205-6.492,6.734,0,4.077,2.416,6.643,6.521,6.643a11.5,11.5,0,0,0,3.836-.665Z" transform="translate(-1.469 -16.546)" fill="#fff"/>
        <path id="Path_448" data-name="Path 448" d="M50.781,26.842c0,6.674-4.047,10.719-9.995,10.719-6.038,0-9.572-4.56-9.572-10.357,0-6.1,3.9-10.658,9.9-10.658C47.368,16.546,50.781,21.226,50.781,26.842Zm-14.705.272c0,3.986,1.872,6.795,4.952,6.795,3.11,0,4.892-2.96,4.892-6.915,0-3.654-1.751-6.793-4.922-6.793C37.887,20.2,36.075,23.159,36.075,27.114Z" transform="translate(1.039 -16.546)" fill="#fff"/>
      </g>
    </g>
    <g id="Group_311" data-name="Group 311" transform="translate(0.18 56.138)">
      <path id="Path_449" data-name="Path 449" d="M7.219,56.026a8.98,8.98,0,0,1-2.675.451A4.469,4.469,0,0,1,1.284,55.4,3.881,3.881,0,0,1,.154,52.48c.012-2.663,1.951-4.186,4.58-4.186a5.525,5.525,0,0,1,2.224.393l-.38,1.451a4.434,4.434,0,0,0-1.867-.346,2.612,2.612,0,0,0-.131,5.222,2.455,2.455,0,0,0,.892-.118V53.219H4.234V51.8H7.219Z" transform="translate(-0.154 -47.818)" fill="#fff"/>
      <path id="Path_450" data-name="Path 450" d="M7.374,52.177c0-.856-.023-1.416-.047-1.915H8.885l.06,1.07h.047a1.709,1.709,0,0,1,1.571-1.2,1.975,1.975,0,0,1,.38.022v1.7a2.617,2.617,0,0,0-.488-.047,1.161,1.161,0,0,0-1.237.916,2.152,2.152,0,0,0-.036.4v2.949H7.374Z" transform="translate(1.082 -47.502)" fill="#fff"/>
      <path id="Path_451" data-name="Path 451" d="M14.474,56.078l-.107-.583h-.036a2.1,2.1,0,0,1-1.666.714,1.783,1.783,0,0,1-1.879-1.784c0-1.511,1.356-2.237,3.414-2.224v-.084c0-.308-.166-.749-1.059-.749a3.266,3.266,0,0,0-1.6.441L11.2,50.642a4.8,4.8,0,0,1,2.26-.511,2.263,2.263,0,0,1,2.558,2.51v2.022a8.967,8.967,0,0,0,.083,1.415Zm-.215-2.748c-.952-.012-1.689.215-1.689.917a.65.65,0,0,0,.714.689.986.986,0,0,0,.939-.666,1.258,1.258,0,0,0,.036-.309Z" transform="translate(1.678 -47.502)" fill="#fff"/>
      <path id="Path_452" data-name="Path 452" d="M16.752,56.464V51.98h-.761V50.648h.761V50.4c0-1.606,1.25-2.51,3.046-2.51a3.906,3.906,0,0,1,1.713.356l-.345,1.368a2.863,2.863,0,0,0-1.32-.3c-.952,0-1.285.488-1.285,1.129v.2h3.533v5.817H20.285V51.98H18.572v4.484Z" transform="translate(2.575 -47.888)" fill="#fff"/>
      <path id="Path_453" data-name="Path 453" d="M24.241,53.078h.025c.131-.237.273-.475.416-.7l1.178-1.749h2.177l-2.082,2.355,2.379,3.462H26.109l-1.4-2.391-.464.571v1.821H22.433V48h1.808Z" transform="translate(3.684 -47.869)" fill="#fff"/>
      <path id="Path_454" data-name="Path 454" d="M27.983,48.48a16.233,16.233,0,0,1,2.45-.165,5.156,5.156,0,0,1,3.282.856,3.544,3.544,0,0,1,1.356,3.021A4.072,4.072,0,0,1,33.74,55.44a5.764,5.764,0,0,1-3.7,1.034,15.643,15.643,0,0,1-2.057-.118ZM29.8,55.023a3.387,3.387,0,0,0,.631.035,2.484,2.484,0,0,0,2.711-2.806,2.3,2.3,0,0,0-2.522-2.546,3.7,3.7,0,0,0-.821.073Z" transform="translate(4.641 -47.814)" fill="#fff"/>
      <path id="Path_455" data-name="Path 455" d="M36.433,53.746c.06.75.8,1.107,1.641,1.107a5.119,5.119,0,0,0,1.606-.238l.238,1.225a5.737,5.737,0,0,1-2.105.358,2.792,2.792,0,0,1-3.1-2.962,2.913,2.913,0,0,1,2.938-3.1c1.879,0,2.593,1.463,2.593,2.9a4.187,4.187,0,0,1-.06.713Zm2.129-1.237a1.05,1.05,0,0,0-1.022-1.178,1.187,1.187,0,0,0-1.118,1.178Z" transform="translate(5.799 -47.502)" fill="#fff"/>
      <path id="Path_456" data-name="Path 456" d="M40.387,54.5a3.538,3.538,0,0,0,1.558.44c.546,0,.773-.191.773-.488s-.178-.44-.856-.666c-1.2-.406-1.666-1.059-1.654-1.749,0-1.082.928-1.9,2.368-1.9a3.908,3.908,0,0,1,1.641.333l-.321,1.25a2.852,2.852,0,0,0-1.26-.334c-.441,0-.69.179-.69.476,0,.273.226.416.939.666,1.107.381,1.571.94,1.583,1.8,0,1.083-.856,1.88-2.522,1.88a4.128,4.128,0,0,1-1.879-.4Z" transform="translate(6.722 -47.502)" fill="#fff"/>
      <path id="Path_457" data-name="Path 457" d="M46.626,49a.908.908,0,0,1-.975.9.911.911,0,1,1,.013-1.821A.905.905,0,0,1,46.626,49ZM44.76,56.431V50.614h1.808v5.817Z" transform="translate(7.523 -47.855)" fill="#fff"/>
      <path id="Path_458" data-name="Path 458" d="M53.135,50.261c-.023.369-.047.857-.047,1.726v3.247a3.341,3.341,0,0,1-.88,2.617,3.587,3.587,0,0,1-2.367.714,4.541,4.541,0,0,1-2.094-.451l.356-1.368a3.59,3.59,0,0,0,1.689.44A1.389,1.389,0,0,0,51.3,55.65v-.381h-.023a1.862,1.862,0,0,1-1.571.761,2.56,2.56,0,0,1-2.462-2.843,2.782,2.782,0,0,1,2.64-3.056,1.754,1.754,0,0,1,1.594.821h.023l.06-.69Zm-1.855,2.368a1.441,1.441,0,0,0-.036-.333.99.99,0,0,0-.975-.8c-.654,0-1.19.594-1.19,1.653,0,.867.429,1.546,1.19,1.546a.981.981,0,0,0,.952-.737,1.559,1.559,0,0,0,.06-.476Z" transform="translate(7.96 -47.502)" fill="#fff"/>
      <path id="Path_459" data-name="Path 459" d="M53.474,52.117c0-.726-.023-1.343-.048-1.856H55l.083.8h.035a2.13,2.13,0,0,1,1.8-.927c1.19,0,2.082.784,2.082,2.5v3.449H57.185V52.854c0-.748-.263-1.26-.917-1.26a.965.965,0,0,0-.916.678,1.259,1.259,0,0,0-.072.453v3.354H53.474Z" transform="translate(9.024 -47.502)" fill="#fff"/>
      <path id="Path_460" data-name="Path 460" d="M64.263,52.028v1.2H61.147v-1.2Z" transform="translate(10.354 -47.175)" fill="#fff"/>
      <path id="Path_461" data-name="Path 461" d="M66.828,48.48a16.249,16.249,0,0,1,2.451-.165,5.16,5.16,0,0,1,3.282.856,3.547,3.547,0,0,1,1.356,3.021,4.069,4.069,0,0,1-1.333,3.248,5.758,5.758,0,0,1-3.7,1.034,15.678,15.678,0,0,1-2.059-.118Zm1.821,6.542a3.381,3.381,0,0,0,.631.035,2.484,2.484,0,0,0,2.712-2.806,2.3,2.3,0,0,0-2.522-2.546,3.7,3.7,0,0,0-.821.073Z" transform="translate(11.333 -47.814)" fill="#fff"/>
      <path id="Path_462" data-name="Path 462" d="M75.752,49a.908.908,0,0,1-.975.9.911.911,0,1,1,.013-1.821A.905.905,0,0,1,75.752,49Zm-1.866,7.435V50.614h1.808v5.817Z" transform="translate(12.541 -47.855)" fill="#fff"/>
      <path id="Path_463" data-name="Path 463" d="M82.262,50.261c-.023.369-.047.857-.047,1.726v3.247a3.341,3.341,0,0,1-.88,2.617,3.587,3.587,0,0,1-2.367.714,4.541,4.541,0,0,1-2.094-.451l.356-1.368a3.586,3.586,0,0,0,1.689.44,1.389,1.389,0,0,0,1.511-1.535v-.381h-.025a1.857,1.857,0,0,1-1.57.761,2.56,2.56,0,0,1-2.462-2.843,2.782,2.782,0,0,1,2.641-3.056,1.753,1.753,0,0,1,1.593.821h.025l.059-.69Zm-1.856,2.368a1.445,1.445,0,0,0-.035-.333.989.989,0,0,0-.975-.8c-.654,0-1.19.594-1.19,1.653,0,.867.428,1.546,1.19,1.546a.98.98,0,0,0,.951-.737,1.525,1.525,0,0,0,.06-.476Z" transform="translate(12.978 -47.502)" fill="#fff"/>
      <path id="Path_464" data-name="Path 464" d="M84.468,49a.908.908,0,0,1-.975.9.911.911,0,1,1,.013-1.821A.906.906,0,0,1,84.468,49ZM82.6,56.431V50.614h1.808v5.817Z" transform="translate(14.042 -47.855)" fill="#fff"/>
      <path id="Path_465" data-name="Path 465" d="M87.471,48.821v1.666h1.3V51.82h-1.3v2.105c0,.7.168,1.022.715,1.022a3,3,0,0,0,.535-.047l.013,1.368a3.562,3.562,0,0,1-1.178.155,1.891,1.891,0,0,1-1.357-.5,2.418,2.418,0,0,1-.5-1.726V51.82h-.774V50.487H85.7v-1.26Z" transform="translate(14.451 -47.727)" fill="#fff"/>
      <path id="Path_466" data-name="Path 466" d="M92.459,56.078l-.107-.583h-.035a2.1,2.1,0,0,1-1.666.714,1.784,1.784,0,0,1-1.88-1.784c0-1.511,1.356-2.237,3.414-2.224v-.084c0-.308-.165-.749-1.057-.749a3.267,3.267,0,0,0-1.606.441l-.333-1.166a4.79,4.79,0,0,1,2.259-.511,2.262,2.262,0,0,1,2.558,2.51v2.022a9.113,9.113,0,0,0,.083,1.415Zm-.215-2.748c-.951-.012-1.688.215-1.688.917a.649.649,0,0,0,.713.689.988.988,0,0,0,.94-.666,1.318,1.318,0,0,0,.035-.309Z" transform="translate(15.113 -47.502)" fill="#fff"/>
      <path id="Path_467" data-name="Path 467" d="M94.453,48h1.808v8.445H94.453Z" transform="translate(16.092 -47.869)" fill="#fff"/>
      <path id="Path_468" data-name="Path 468" d="M97.294,48.48a16.234,16.234,0,0,1,2.45-.165,5.158,5.158,0,0,1,3.282.856,3.548,3.548,0,0,1,1.358,3.021,4.072,4.072,0,0,1-1.333,3.248,5.764,5.764,0,0,1-3.7,1.034,15.658,15.658,0,0,1-2.057-.118Zm1.819,6.542a3.387,3.387,0,0,0,.631.035,2.484,2.484,0,0,0,2.711-2.806,2.3,2.3,0,0,0-2.52-2.546,3.707,3.707,0,0,0-.822.073Z" transform="translate(16.582 -47.814)" fill="#fff"/>
      <path id="Path_469" data-name="Path 469" d="M104.351,52.177c0-.856-.023-1.416-.048-1.915h1.559l.059,1.07h.048a1.709,1.709,0,0,1,1.571-1.2,1.976,1.976,0,0,1,.38.022v1.7a2.617,2.617,0,0,0-.488-.047,1.16,1.16,0,0,0-1.237.916,2.152,2.152,0,0,0-.036.4v2.949h-1.808Z" transform="translate(17.789 -47.502)" fill="#fff"/>
      <path id="Path_470" data-name="Path 470" d="M113.656,54.191c0,.762.025,1.38.047,1.867h-1.569l-.084-.821h-.035a2.072,2.072,0,0,1-1.821.952c-1.177,0-2.046-.737-2.046-2.534V50.242h1.821v3.129c0,.844.273,1.355.9,1.355a.973.973,0,0,0,.9-.63,1,1,0,0,0,.06-.393V50.242h1.819Z" transform="translate(18.452 -47.482)" fill="#fff"/>
      <path id="Path_471" data-name="Path 471" d="M118.5,55.935a4.395,4.395,0,0,1-1.618.263,2.821,2.821,0,0,1-3.08-2.974,3.032,3.032,0,0,1,3.329-3.092,4.19,4.19,0,0,1,1.381.225l-.286,1.345a2.472,2.472,0,0,0-1.01-.179,1.631,1.631,0,0,0,.035,3.26,2.8,2.8,0,0,0,1.035-.178Z" transform="translate(19.425 -47.502)" fill="#fff"/>
      <path id="Path_472" data-name="Path 472" d="M120.467,53.078h.023c.131-.237.274-.475.417-.7l1.177-1.749h2.177l-2.082,2.355,2.38,3.462h-2.224l-1.406-2.391-.463.571v1.821h-1.808V48h1.808Z" transform="translate(20.262 -47.869)" fill="#fff"/>
      <path id="Path_473" data-name="Path 473" d="M129.009,52.028v1.2h-3.116v-1.2Z" transform="translate(21.509 -47.175)" fill="#fff"/>
      <path id="Path_474" data-name="Path 474" d="M131.574,48.48a15.967,15.967,0,0,1,2.415-.165,4.093,4.093,0,0,1,2.592.63,2.031,2.031,0,0,1,.737,1.678A2.126,2.126,0,0,1,135.9,52.6v.036a2.022,2.022,0,0,1,1.07,1.5c.25.9.5,1.952.655,2.26h-1.856a10.043,10.043,0,0,1-.56-1.867c-.213-1-.558-1.273-1.3-1.285h-.547v3.152h-1.8Zm1.8,3.451h.714c.9,0,1.438-.453,1.438-1.155,0-.739-.5-1.107-1.332-1.118a4.422,4.422,0,0,0-.821.06Z" transform="translate(22.487 -47.814)" fill="#fff"/>
      <path id="Path_475" data-name="Path 475" d="M138.979,53.746c.059.75.8,1.107,1.641,1.107a5.119,5.119,0,0,0,1.606-.238l.238,1.225a5.741,5.741,0,0,1-2.105.358,2.791,2.791,0,0,1-3.1-2.962,2.913,2.913,0,0,1,2.937-3.1c1.88,0,2.594,1.463,2.594,2.9a4.478,4.478,0,0,1-.059.713Zm2.129-1.237a1.05,1.05,0,0,0-1.022-1.178,1.188,1.188,0,0,0-1.118,1.178Z" transform="translate(23.466 -47.502)" fill="#fff"/>
      <path id="Path_476" data-name="Path 476" d="M142.9,52.212c0-.761-.023-1.415-.048-1.951h1.571l.083.81h.023a2.228,2.228,0,0,1,1.939-.94c1.273,0,2.415,1.105,2.415,2.961,0,2.117-1.345,3.117-2.64,3.117a1.806,1.806,0,0,1-1.511-.667h-.025v2.891H142.9Zm1.808,1.368a1.911,1.911,0,0,0,.035.381,1.1,1.1,0,0,0,1.06.857c.785,0,1.248-.655,1.248-1.641,0-.928-.416-1.631-1.225-1.631a1.138,1.138,0,0,0-1.083.916,1.5,1.5,0,0,0-.035.322Z" transform="translate(24.431 -47.502)" fill="#fff"/>
      <path id="Path_477" data-name="Path 477" d="M148.97,52.177c0-.856-.025-1.416-.048-1.915h1.558l.059,1.07h.048a1.709,1.709,0,0,1,1.571-1.2,1.994,1.994,0,0,1,.381.022v1.7a2.639,2.639,0,0,0-.488-.047,1.161,1.161,0,0,0-1.238.916,2.158,2.158,0,0,0-.035.4v2.949H148.97Z" transform="translate(25.476 -47.502)" fill="#fff"/>
      <path id="Path_478" data-name="Path 478" d="M158.531,53.1a2.919,2.919,0,0,1-3.069,3.105,2.849,2.849,0,0,1-3.009-3,2.9,2.9,0,0,1,3.1-3.081A2.828,2.828,0,0,1,158.531,53.1Zm-4.211.06c0,1,.416,1.749,1.189,1.749.7,0,1.155-.7,1.155-1.749,0-.867-.334-1.748-1.155-1.748C154.642,51.416,154.32,52.307,154.32,53.164Z" transform="translate(26.084 -47.502)" fill="#fff"/>
    </g>
  </g>
</svg>
