<svg id="Management" xmlns="http://www.w3.org/2000/svg" width="30.881" height="32" viewBox="0 0 30.881 32">
  <g id="Group_351" data-name="Group 351" transform="translate(5.333)">
    <path id="Path_576" data-name="Path 576" d="M10.667,13.333a6.667,6.667,0,1,1,6.667-6.667A6.674,6.674,0,0,1,10.667,13.333Zm0-12A5.333,5.333,0,1,0,16,6.667,5.339,5.339,0,0,0,10.667,1.333Z" transform="translate(-4)" fill="#fff"/>
  </g>
  <g id="Group_352" data-name="Group 352" transform="translate(0 16)">
    <path id="Path_577" data-name="Path 577" d="M11.333,24H.667A.667.667,0,0,1,0,23.333V18a6.007,6.007,0,0,1,6-6h8a.667.667,0,0,1,0,1.333H6A4.672,4.672,0,0,0,1.333,18v4.667h10a.667.667,0,0,1,0,1.333Z" transform="translate(0 -12)" fill="#fff"/>
  </g>
  <g id="Group_355" data-name="Group 355" transform="translate(14.451 14.668)">
    <g id="Group_353" data-name="Group 353" transform="translate(4.882 5.332)">
      <path id="Path_578" data-name="Path 578" d="M17.833,21.667a3.333,3.333,0,1,1,3.333-3.333A3.338,3.338,0,0,1,17.833,21.667Zm0-5.333a2,2,0,1,0,2,2A2,2,0,0,0,17.833,16.333Z" transform="translate(-14.5 -15)" fill="#fff"/>
    </g>
    <g id="Group_354" data-name="Group 354">
      <path id="Path_579" data-name="Path 579" d="M20.117,28.333H17.99a1.329,1.329,0,0,1-1.327-1.2l-.169-1.695a6.261,6.261,0,0,1-1.153-.671l-1.557.7a1.326,1.326,0,0,1-1.7-.549l-1.063-1.841a1.33,1.33,0,0,1,.376-1.749l1.372-.987a5.063,5.063,0,0,1,0-1.352L11.394,18a1.33,1.33,0,0,1-.376-1.749l1.063-1.841a1.329,1.329,0,0,1,1.7-.549l1.557.7a6.262,6.262,0,0,1,1.153-.671l.169-1.695A1.329,1.329,0,0,1,17.99,11h2.127a1.329,1.329,0,0,1,1.327,1.2l.169,1.695a6.249,6.249,0,0,1,1.153.671l1.557-.7a1.331,1.331,0,0,1,1.7.549l1.063,1.841A1.33,1.33,0,0,1,26.713,18l-1.372.987a5.061,5.061,0,0,1,0,1.352l1.372.987a1.33,1.33,0,0,1,.376,1.749l-1.061,1.84a1.328,1.328,0,0,1-1.7.549l-1.557-.7a6.262,6.262,0,0,1-1.153.671l-.171,1.7a1.329,1.329,0,0,1-1.327,1.2Zm-4.683-5.007a.667.667,0,0,1,.428.156,4.965,4.965,0,0,0,1.484.863.667.667,0,0,1,.435.56L17.991,27h2.127l.209-2.095a.667.667,0,0,1,.435-.56,4.994,4.994,0,0,0,1.484-.863.666.666,0,0,1,.7-.1l1.925.869,1.063-1.841-1.7-1.224a.671.671,0,0,1-.268-.657,4.223,4.223,0,0,0,0-1.728.669.669,0,0,1,.268-.657l1.7-1.224-1.063-1.841-1.925.868a.668.668,0,0,1-.7-.1,4.916,4.916,0,0,0-1.484-.863.667.667,0,0,1-.435-.56l-.209-2.1H17.99l-.209,2.095a.667.667,0,0,1-.435.56,4.994,4.994,0,0,0-1.484.863.663.663,0,0,1-.7.1l-1.925-.869-1.063,1.841,1.7,1.224a.671.671,0,0,1,.268.657,4.223,4.223,0,0,0,0,1.728.669.669,0,0,1-.268.657l-1.7,1.224,1.063,1.841,1.925-.868A.7.7,0,0,1,15.434,23.326Z" transform="translate(-10.838 -11.001)" fill="#fff"/>
    </g>
  </g>
</svg>
