<svg xmlns="http://www.w3.org/2000/svg" width="32" height="28" viewBox="0 0 32 28">
  <path id="bars" d="M1.143,9.362H30.857A1.143,1.143,0,0,0,32,8.219V5.362a1.143,1.143,0,0,0-1.143-1.143H1.143A1.143,1.143,0,0,0,0,5.362V8.219A1.143,1.143,0,0,0,1.143,9.362Zm0,11.429H30.857A1.143,1.143,0,0,0,32,19.647V16.79a1.143,1.143,0,0,0-1.143-1.143H1.143A1.143,1.143,0,0,0,0,16.79v2.857A1.143,1.143,0,0,0,1.143,20.79Zm0,11.429H30.857A1.143,1.143,0,0,0,32,31.076V28.219a1.143,1.143,0,0,0-1.143-1.143H1.143A1.143,1.143,0,0,0,0,28.219v2.857A1.143,1.143,0,0,0,1.143,32.219Z" transform="translate(0 -4.219)" fill="#546d79"/>
</svg>
