<svg xmlns="http://www.w3.org/2000/svg" width="24.023" height="32" viewBox="0 0 24.023 32">
  <g id="delete" transform="translate(-63.818)">
    <g id="Group_315" data-name="Group 315" transform="translate(63.818 0)">
      <path id="Path_479" data-name="Path 479" d="M311.109,84.5l-5.887,1.736a1.564,1.564,0,0,0-1.049,1.476v2.639a.938.938,0,0,0,.938.938h7.126a.938.938,0,0,0,.938-.938V85.982A1.564,1.564,0,0,0,311.109,84.5Z" transform="translate(-289.15 -79.143)" fill="#ff5e94"/>
      <path id="Path_480" data-name="Path 480" d="M160.161,164.371v17.664a4.067,4.067,0,0,0,4.063,4.063H174.1a4.067,4.067,0,0,0,4.063-4.063V164.371Z" transform="translate(-154.14 -154.098)" fill="#9dcfff"/>
      <path id="Path_481" data-name="Path 481" d="M304.172,164.371V186.1h4.938a4.067,4.067,0,0,0,4.063-4.063V164.371Z" transform="translate(-289.15 -154.098)" fill="#72bbff"/>
      <g id="Group_313" data-name="Group 313" transform="translate(9.913 14.586)">
        <path id="Path_482" data-name="Path 482" d="M223.368,233.376a.938.938,0,0,0-.938.938V245.54a.938.938,0,0,0,1.875,0V234.314A.938.938,0,0,0,223.368,233.376Z" transform="translate(-222.43 -233.376)" fill="#5a5a5a"/>
        <path id="Path_483" data-name="Path 483" d="M290.108,233.376a.938.938,0,0,0-.938.938V245.54a.938.938,0,0,0,1.875,0V234.314A.938.938,0,0,0,290.108,233.376Z" transform="translate(-284.999 -233.376)" fill="#5a5a5a"/>
      </g>
      <g id="Group_314" data-name="Group 314" transform="translate(15.022 14.586)">
        <path id="Path_484" data-name="Path 484" d="M305.109,234.318v11.226a.938.938,0,0,1-.938.938v-13.1A.937.937,0,0,1,305.109,234.318Z" transform="translate(-304.171 -233.38)" fill="#444"/>
        <path id="Path_485" data-name="Path 485" d="M356.849,233.376a.938.938,0,0,0-.938.938V245.54a.938.938,0,1,0,1.875,0V234.314A.937.937,0,0,0,356.849,233.376Z" transform="translate(-352.677 -233.376)" fill="#444"/>
      </g>
      <path id="Path_486" data-name="Path 486" d="M83.111,12.41h0a2.506,2.506,0,0,0-3.091.353h0L78.3,14.487l-1.724,1.724a2.5,2.5,0,0,0,0,3.536l.884.884,1.269-.131.056-1.195-.884-.884a.625.625,0,0,1,0-.884l1.724-1.724,1.723-1.724h0a.625.625,0,0,1,.883,0l.884.884,1.159-.193.167-1.133A8.007,8.007,0,0,0,83.111,12.41Z" transform="translate(-75.089 -11.281)" fill="#5a5a5a"/>
      <path id="Path_487" data-name="Path 487" d="M119.936,12.409h0a2.5,2.5,0,0,0-3.091.354l-1.724,1.723,1.326,1.326,1.724-1.724a.624.624,0,0,1,.883,0l.884.884,1.326-1.326A7.88,7.88,0,0,0,119.936,12.409Z" transform="translate(-111.914 -11.28)" fill="#444"/>
      <path id="Path_488" data-name="Path 488" d="M79.668,2.32,77.988.64a2.19,2.19,0,0,0-3.094,0L64.457,11.077a2.19,2.19,0,0,0,0,3.094l1.68,1.679a.937.937,0,0,0,1.326,0l12.2-12.2a.938.938,0,0,0,0-1.326Z" transform="translate(-63.818 -0.001)" fill="#3ba9ff"/>
      <path id="Path_489" data-name="Path 489" d="M165.862.64l1.68,1.68a.938.938,0,0,1,0,1.326l-6.1,6.1L157.55,5.858,162.768.64a2.19,2.19,0,0,1,3.094,0Z" transform="translate(-151.692 0)" fill="#0081ff"/>
    </g>
  </g>
</svg>
