<svg xmlns="http://www.w3.org/2000/svg" width="32.001" height="32" viewBox="0 0 32.001 32">
  <g id="edit" transform="translate(0 -0.001)">
    <path id="Path_490" data-name="Path 490" d="M22.667,30.667H4a4.005,4.005,0,0,1-4-4V8A4.005,4.005,0,0,1,4,4H14.667a1.333,1.333,0,1,1,0,2.667H4A1.335,1.335,0,0,0,2.667,8V26.667A1.335,1.335,0,0,0,4,28H22.667A1.335,1.335,0,0,0,24,26.667V16a1.333,1.333,0,1,1,2.667,0V26.667A4.005,4.005,0,0,1,22.667,30.667Z" transform="translate(0 1.333)" fill="#607d8b"/>
    <path id="Path_491" data-name="Path 491" d="M20.21,3.177,9.661,13.727a.675.675,0,0,0-.183.34l-.943,4.715a.666.666,0,0,0,.655.8l.131-.013,4.713-.943a.659.659,0,0,0,.341-.183L24.925,7.89Z" transform="translate(2.841 1.059)" fill="#42a5f5"/>
    <path id="Path_492" data-name="Path 492" d="M24.908.976a3.336,3.336,0,0,0-4.713,0L18.349,2.821l4.713,4.713,1.845-1.845a3.333,3.333,0,0,0,0-4.713Z" transform="translate(6.117 0)" fill="#42a5f5"/>
    <path id="Path_493" data-name="Path 493" d="M25.041,12a1.333,1.333,0,0,0-1.333,1.333V24a1.335,1.335,0,0,1-1.333,1.333H3.707a1.329,1.329,0,0,1-.943-.391L.88,26.827A3.982,3.982,0,0,0,3.707,28H22.374a4.005,4.005,0,0,0,4-4V13.333A1.332,1.332,0,0,0,25.041,12Z" transform="translate(0.293 4)" fill="#546d79"/>
    <g id="Group_316" data-name="Group 316" transform="translate(11.559 0.976)">
      <path id="Path_494" data-name="Path 494" d="M22.519,4.944,8.669,18.794a.667.667,0,0,0,.472.195l.131-.013,4.713-.943a.659.659,0,0,0,.341-.183L24.876,7.3Z" transform="translate(-8.669 0.672)" fill="#3990d5"/>
      <path id="Path_495" data-name="Path 495" d="M24.318.732l-4.2,4.2,2.357,2.357L24.32,5.445a3.335,3.335,0,0,0,0-4.713Z" transform="translate(-4.853 -0.732)" fill="#3990d5"/>
    </g>
  </g>
</svg>
