<svg xmlns="http://www.w3.org/2000/svg" width="24" height="23.999" viewBox="0 0 24 23.999">
  <g id="edit_W" data-name="edit W" transform="translate(0 -0.001)">
    <path id="Path_490" data-name="Path 490" d="M17,24H3a3,3,0,0,1-3-3V7A3,3,0,0,1,3,4h8a1,1,0,1,1,0,2H3A1,1,0,0,0,2,7V21a1,1,0,0,0,1,1H17a1,1,0,0,0,1-1V13a1,1,0,0,1,2,0v8A3,3,0,0,1,17,24Z" transform="translate(0 0)" fill="#fff"/>
    <path id="Path_491" data-name="Path 491" d="M17.288,3.177,9.376,11.089a.506.506,0,0,0-.137.255L8.532,14.88a.5.5,0,0,0,.491.6l.1-.01,3.535-.707a.494.494,0,0,0,.256-.137l7.912-7.912Z" transform="translate(0 0)" fill="#fff"/>
    <path id="Path_492" data-name="Path 492" d="M23.268.732a2.5,2.5,0,0,0-3.535,0L18.349,2.116l3.535,3.535,1.384-1.384a2.5,2.5,0,0,0,0-3.535Z" transform="translate(0 0)" fill="#fff"/>
    <path id="Path_493" data-name="Path 493" d="M19,12a1,1,0,0,0-1,1v8a1,1,0,0,1-1,1H3a1,1,0,0,1-.707-.293L.88,23.12A2.987,2.987,0,0,0,3,24H17a3,3,0,0,0,3-3V13A1,1,0,0,0,19,12Z" transform="translate(0 0)" fill="#fff"/>
    <g id="Group_316" data-name="Group 316" transform="translate(8.669 0.732)">
      <path id="Path_494" data-name="Path 494" d="M19.056,4.944,8.669,15.331a.5.5,0,0,0,.354.146l.1-.01,3.535-.707a.494.494,0,0,0,.256-.137l7.912-7.912Z" transform="translate(-8.669 -0.732)" fill="#fff"/>
      <path id="Path_495" data-name="Path 495" d="M23.268.732,20.117,3.883l1.768,1.768,1.384-1.384a2.5,2.5,0,0,0,0-3.535Z" transform="translate(-8.669 -0.732)" fill="#fff"/>
    </g>
  </g>
</svg>
