<svg xmlns="http://www.w3.org/2000/svg" width="32" height="32" viewBox="0 0 32 32">
  <g id="Group_317" data-name="Group 317" transform="translate(-1568 -349)">
    <path id="Subtraction_1" data-name="Subtraction 1" d="M9.131,20.87H1.3a1.3,1.3,0,0,1,0-2.609h1.3V10.435H1.3a1.3,1.3,0,1,1,0-2.609H6.522a1.3,1.3,0,0,1,1.3,1.3v9.13h1.3a1.3,1.3,0,1,1,0,2.609ZM5.217,5.217A2.609,2.609,0,0,1,4.2.205,2.609,2.609,0,0,1,6.233,5.012,2.593,2.593,0,0,1,5.217,5.217Z" transform="translate(1579.13 354.565)" fill="#546d79"/>
    <path id="Ellipse_225" data-name="Ellipse 225" d="M16,2.435A13.565,13.565,0,1,0,29.565,16,13.581,13.581,0,0,0,16,2.435M16,0A16,16,0,1,1,0,16,16,16,0,0,1,16,0Z" transform="translate(1568 349)" fill="#546d79"/>
  </g>
</svg>
